<svg id="svg" version="1.1" xmlns="http://www.w3.org/2000/svg" xmlns:xlink="http://www.w3.org/1999/xlink" width="400" height="89.8876404494382" viewBox="0, 0, 400,89.8876404494382"><g id="svgg"><path id="path0" d="M40.000 0.226 C 40.000 0.383,39.663 0.483,38.897 0.555 C 37.849 0.653,37.249 0.896,37.411 1.158 C 37.452 1.224,37.395 1.287,37.284 1.299 C 37.055 1.323,36.167 1.503,35.917 1.576 C 35.825 1.602,35.688 1.629,35.612 1.634 C 35.537 1.640,35.340 1.800,35.176 1.989 C 35.012 2.178,34.755 2.333,34.605 2.333 C 34.456 2.333,34.333 2.413,34.333 2.510 C 34.333 2.607,34.258 2.640,34.166 2.583 C 34.075 2.526,33.933 2.655,33.851 2.870 C 33.760 3.109,33.552 3.271,33.313 3.289 C 33.099 3.305,32.847 3.422,32.753 3.549 C 32.565 3.804,31.841 4.235,31.586 4.244 C 31.495 4.247,31.322 4.456,31.201 4.708 C 31.077 4.967,30.846 5.167,30.669 5.167 C 30.472 5.167,30.337 5.305,30.303 5.542 C 30.270 5.778,30.116 5.936,29.888 5.968 C 29.688 5.997,29.405 6.203,29.259 6.427 C 29.112 6.650,28.891 6.833,28.767 6.833 C 28.643 6.833,28.497 7.058,28.442 7.333 C 28.370 7.691,28.246 7.833,28.004 7.833 C 27.780 7.833,27.667 7.943,27.667 8.161 C 27.667 8.448,27.059 8.953,26.833 8.853 C 26.787 8.832,26.723 8.951,26.690 9.116 C 26.611 9.519,26.343 9.831,26.117 9.786 C 26.015 9.766,25.922 9.825,25.910 9.917 C 25.860 10.293,25.622 10.659,25.483 10.573 C 25.400 10.522,25.333 10.594,25.333 10.732 C 25.333 10.870,25.214 11.050,25.068 11.132 C 24.923 11.213,24.810 11.329,24.818 11.390 C 24.880 11.847,24.808 12.337,24.689 12.264 C 24.525 12.162,24.102 12.606,23.947 13.042 C 23.890 13.202,23.729 13.333,23.589 13.333 C 23.448 13.333,23.333 13.471,23.333 13.639 C 23.333 13.807,23.277 14.001,23.208 14.069 C 23.083 14.194,23.060 14.279,23.021 14.750 C 23.008 14.900,22.833 15.000,22.583 15.000 C 22.276 15.000,22.167 15.089,22.167 15.339 C 22.167 15.525,22.035 15.725,21.875 15.784 C 21.715 15.843,21.510 16.010,21.421 16.154 C 21.261 16.414,21.228 16.508,21.188 16.833 C 21.176 16.925,21.017 17.000,20.833 17.000 C 20.641 17.000,20.500 17.111,20.500 17.262 C 20.500 17.519,20.139 17.977,19.881 18.048 C 19.809 18.067,19.769 18.140,19.792 18.208 C 19.815 18.277,19.758 18.333,19.667 18.333 C 19.575 18.333,19.500 18.450,19.500 18.593 C 19.500 18.736,19.444 18.823,19.375 18.786 C 19.211 18.699,18.665 19.276,18.792 19.403 C 18.878 19.490,18.717 19.523,18.383 19.488 C 18.319 19.481,18.212 19.622,18.146 19.801 C 18.079 19.981,17.795 20.230,17.513 20.354 C 17.221 20.484,17.000 20.708,17.000 20.874 C 17.000 21.035,16.925 21.176,16.833 21.188 C 16.263 21.259,15.871 21.504,15.782 21.845 C 15.733 22.034,15.554 22.167,15.349 22.167 C 15.119 22.167,15.000 22.273,15.000 22.480 C 15.000 22.823,14.615 23.226,14.447 23.058 C 14.389 23.000,14.227 23.047,14.087 23.163 C 13.948 23.279,13.833 23.318,13.833 23.250 C 13.833 23.182,13.722 23.219,13.585 23.332 C 13.449 23.445,13.375 23.599,13.421 23.674 C 13.467 23.748,13.335 23.861,13.127 23.924 C 12.637 24.074,12.150 24.505,12.264 24.689 C 12.337 24.808,11.847 24.880,11.390 24.818 C 11.329 24.810,11.213 24.923,11.132 25.068 C 11.050 25.214,10.870 25.333,10.732 25.333 C 10.594 25.333,10.522 25.400,10.573 25.483 C 10.660 25.624,10.274 25.871,9.917 25.902 C 9.825 25.910,9.750 26.007,9.750 26.117 C 9.750 26.391,9.482 26.622,9.083 26.694 C 8.900 26.728,8.741 26.847,8.729 26.961 C 8.718 27.074,8.699 27.236,8.688 27.322 C 8.676 27.407,8.498 27.501,8.292 27.530 C 8.051 27.564,7.898 27.717,7.863 27.958 C 7.834 28.165,7.694 28.333,7.552 28.333 C 7.227 28.333,6.050 29.532,5.972 29.943 C 5.940 30.112,5.745 30.274,5.540 30.303 C 5.305 30.337,5.167 30.472,5.167 30.669 C 5.167 30.846,4.967 31.077,4.708 31.201 C 4.456 31.322,4.247 31.495,4.244 31.586 C 4.232 31.913,3.816 32.500,3.596 32.500 C 3.472 32.500,3.374 32.594,3.378 32.708 C 3.404 33.408,3.286 33.676,2.833 33.943 C 2.535 34.120,2.333 34.377,2.333 34.582 C 2.333 34.772,2.187 35.032,2.009 35.160 C 1.831 35.289,1.719 35.450,1.762 35.519 C 1.804 35.587,1.763 35.691,1.669 35.748 C 1.576 35.806,1.498 36.092,1.495 36.385 C 1.489 36.920,1.144 37.564,0.942 37.414 C 0.882 37.370,0.870 37.383,0.915 37.443 C 0.960 37.503,0.924 37.640,0.835 37.748 C 0.639 37.984,0.529 38.539,0.512 39.375 C 0.504 39.814,0.426 40.000,0.250 40.000 C 0.034 40.000,0.000 40.648,0.000 44.833 C 0.000 49.019,0.034 49.667,0.250 49.667 C 0.424 49.667,0.506 49.856,0.520 50.292 C 0.575 52.041,0.680 52.421,1.141 52.542 C 1.327 52.590,1.440 52.812,1.467 53.183 C 1.529 54.045,1.665 54.347,1.964 54.296 C 2.164 54.262,2.266 54.425,2.347 54.907 C 2.416 55.314,2.625 55.708,2.896 55.941 C 3.136 56.148,3.333 56.471,3.333 56.659 C 3.333 56.846,3.412 57.000,3.507 57.000 C 3.603 57.000,3.659 57.131,3.632 57.292 C 3.599 57.490,3.676 57.568,3.875 57.534 C 4.074 57.501,4.167 57.594,4.167 57.826 C 4.167 58.013,4.246 58.167,4.343 58.167 C 4.440 58.167,4.477 58.236,4.424 58.321 C 4.372 58.406,4.480 58.524,4.664 58.583 C 4.849 58.641,5.000 58.825,5.000 58.991 C 5.000 59.262,5.466 59.811,5.609 59.708 C 5.786 59.581,5.972 59.708,6.052 60.012 C 6.101 60.203,6.293 60.398,6.478 60.446 C 6.663 60.494,6.838 60.694,6.866 60.890 C 6.894 61.086,7.123 61.345,7.375 61.466 C 7.643 61.594,7.833 61.820,7.833 62.009 C 7.833 62.227,7.948 62.333,8.182 62.333 C 8.387 62.333,8.566 62.466,8.615 62.655 C 8.705 62.996,9.096 63.241,9.667 63.313 C 9.758 63.324,9.833 63.480,9.833 63.659 C 9.833 63.900,9.987 64.014,10.421 64.095 C 10.744 64.156,11.112 64.353,11.238 64.534 C 11.373 64.725,11.839 64.948,12.359 65.068 C 12.874 65.186,13.232 65.356,13.208 65.470 C 13.185 65.578,13.223 65.672,13.292 65.679 C 13.360 65.686,13.567 65.724,13.750 65.762 C 14.328 65.884,15.333 65.655,15.333 65.402 C 15.333 65.273,15.390 65.161,15.458 65.154 C 15.721 65.127,16.247 65.015,16.657 64.899 C 16.891 64.833,17.149 64.794,17.229 64.813 C 17.309 64.832,17.329 64.729,17.274 64.586 C 17.204 64.402,17.346 64.242,17.754 64.048 C 18.310 63.782,18.446 63.475,18.345 62.706 C 18.309 62.429,18.805 61.726,18.962 61.833 C 19.299 62.064,19.116 59.827,18.764 59.417 C 18.478 59.084,18.394 58.746,18.359 57.790 C 18.318 56.669,18.279 56.254,18.113 55.167 C 18.074 54.908,17.954 54.766,17.799 54.793 C 17.190 54.899,17.187 35.561,17.796 35.032 C 18.187 34.694,18.307 34.095,18.349 32.283 C 18.372 31.276,18.442 30.942,18.663 30.785 C 18.965 30.571,19.353 29.935,19.316 29.715 C 19.242 29.273,19.366 28.833,19.565 28.833 C 19.697 28.833,19.894 28.500,20.023 28.061 C 20.170 27.560,20.382 27.229,20.625 27.118 C 20.941 26.973,21.142 26.364,20.958 26.109 C 20.874 25.992,21.376 25.507,21.501 25.584 C 21.635 25.667,21.908 25.185,21.859 24.955 C 21.843 24.884,22.013 24.757,22.235 24.672 C 22.458 24.588,22.744 24.308,22.873 24.051 C 23.001 23.794,23.201 23.604,23.317 23.630 C 23.434 23.655,23.570 23.518,23.620 23.325 C 23.671 23.132,23.891 22.907,24.109 22.824 C 24.327 22.741,24.578 22.483,24.666 22.252 C 24.754 22.020,24.884 21.843,24.955 21.859 C 25.192 21.910,25.666 21.633,25.580 21.494 C 25.435 21.260,25.851 21.059,26.557 21.021 C 26.798 21.008,27.019 20.842,27.136 20.583 C 27.278 20.273,27.454 20.167,27.830 20.167 C 28.107 20.167,28.333 20.087,28.333 19.990 C 28.333 19.893,28.390 19.848,28.458 19.889 C 28.621 19.988,29.011 19.566,28.879 19.434 C 28.823 19.379,28.959 19.325,29.181 19.314 C 30.118 19.269,30.626 19.058,30.753 18.658 C 30.839 18.388,31.021 18.330,31.845 18.313 C 33.598 18.276,33.778 18.253,34.031 18.043 C 34.168 17.929,34.336 17.892,34.404 17.960 C 34.472 18.028,34.503 17.981,34.472 17.855 C 34.386 17.501,34.630 17.487,42.417 17.399 C 51.314 17.298,55.517 17.429,55.373 17.803 C 55.314 17.958,55.346 18.012,55.457 17.943 C 55.557 17.882,55.667 17.917,55.702 18.021 C 55.742 18.144,56.493 18.242,57.804 18.296 C 58.925 18.342,59.808 18.415,59.765 18.457 C 59.498 18.724,60.355 19.195,60.975 19.124 C 61.626 19.048,62.256 18.645,62.048 18.437 C 61.991 18.380,62.253 18.333,62.631 18.333 C 63.440 18.333,64.167 18.041,64.167 17.715 C 64.167 17.588,64.364 17.315,64.605 17.107 C 65.003 16.765,65.079 16.554,65.145 15.615 C 65.157 15.449,65.236 15.357,65.322 15.410 C 65.704 15.645,65.870 14.901,65.740 13.542 C 65.669 12.800,65.572 12.500,65.403 12.500 C 65.273 12.500,65.167 12.345,65.167 12.156 C 65.167 11.805,64.881 11.151,64.663 11.000 C 64.597 10.954,64.364 10.653,64.146 10.330 C 63.928 10.007,63.676 9.745,63.585 9.746 C 63.494 9.748,63.381 9.525,63.334 9.250 C 63.267 8.860,63.151 8.739,62.807 8.699 C 62.499 8.663,62.334 8.524,62.262 8.240 C 62.206 8.017,62.047 7.833,61.909 7.833 C 61.771 7.833,61.587 7.644,61.499 7.414 C 61.411 7.183,61.150 6.922,60.920 6.834 C 60.689 6.747,60.500 6.559,60.500 6.417 C 60.500 6.275,60.313 6.087,60.083 6.000 C 59.854 5.913,59.667 5.725,59.667 5.583 C 59.667 5.441,59.486 5.256,59.264 5.172 C 59.043 5.088,58.814 4.869,58.756 4.685 C 58.697 4.501,58.485 4.298,58.283 4.235 C 58.082 4.171,57.818 3.978,57.697 3.807 C 57.576 3.635,57.407 3.538,57.322 3.590 C 57.237 3.643,57.167 3.607,57.167 3.510 C 57.167 3.413,56.998 3.332,56.792 3.331 C 56.298 3.327,56.052 3.155,55.977 2.761 C 55.934 2.532,55.748 2.420,55.333 2.374 C 55.012 2.338,54.563 2.134,54.333 1.919 C 54.104 1.705,53.579 1.461,53.167 1.377 C 52.742 1.291,52.435 1.140,52.458 1.029 C 52.481 0.921,52.444 0.828,52.375 0.821 C 52.306 0.814,52.100 0.772,51.917 0.729 C 51.733 0.685,51.265 0.606,50.875 0.553 C 50.433 0.493,50.167 0.371,50.167 0.228 C 50.167 0.040,49.276 0.000,45.083 0.000 C 40.917 0.000,40.000 0.041,40.000 0.226 M75.969 24.086 C 75.936 24.120,75.558 24.166,75.130 24.188 C 74.702 24.210,74.384 24.281,74.424 24.345 C 74.558 24.561,74.085 24.808,73.431 24.863 C 73.004 24.898,72.721 25.027,72.600 25.240 C 72.499 25.417,72.210 25.743,71.958 25.963 C 71.603 26.273,71.500 26.511,71.500 27.025 C 71.500 27.389,71.431 27.644,71.347 27.592 C 70.848 27.283,70.567 28.591,70.883 29.750 C 70.934 29.933,70.980 30.215,70.987 30.375 C 70.994 30.535,71.112 30.667,71.250 30.667 C 71.499 30.667,71.533 30.954,71.557 33.292 C 71.560 33.681,71.619 34.000,71.687 34.000 C 71.756 34.000,71.777 34.188,71.736 34.417 C 71.694 34.646,71.734 34.833,71.824 34.833 C 72.437 34.833,72.488 35.544,72.496 44.083 C 72.505 53.431,72.397 55.098,71.810 54.735 C 71.742 54.694,71.691 54.792,71.697 54.955 C 71.703 55.117,71.663 55.775,71.609 56.417 C 71.554 57.058,71.493 57.897,71.473 58.281 C 71.453 58.665,71.363 58.965,71.273 58.948 C 71.009 58.897,70.672 59.700,70.669 60.385 C 70.668 60.734,70.607 60.983,70.534 60.938 C 70.262 60.770,69.967 61.141,69.884 61.753 C 69.827 62.180,69.641 62.516,69.309 62.796 C 69.040 63.023,68.861 63.250,68.913 63.301 C 68.964 63.353,68.786 63.625,68.517 63.906 C 68.248 64.187,68.003 64.604,67.972 64.833 C 67.934 65.117,67.797 65.267,67.542 65.303 C 67.299 65.338,67.167 65.471,67.167 65.682 C 67.167 65.877,66.998 66.072,66.747 66.168 C 66.516 66.256,66.255 66.517,66.167 66.748 C 66.079 66.980,65.949 67.157,65.879 67.141 C 65.632 67.088,65.169 67.369,65.260 67.517 C 65.311 67.598,65.142 67.755,64.884 67.864 C 64.627 67.973,64.220 68.242,63.979 68.460 C 63.738 68.678,63.400 68.876,63.229 68.899 C 63.057 68.923,62.843 69.105,62.752 69.304 C 62.642 69.546,62.438 69.667,62.138 69.667 C 61.518 69.667,60.791 69.964,60.917 70.167 C 61.052 70.386,60.297 70.667,59.572 70.667 C 59.258 70.667,59.000 70.745,59.000 70.841 C 59.000 70.936,58.870 70.993,58.712 70.966 C 58.554 70.939,58.422 71.004,58.420 71.111 C 58.414 71.454,58.250 71.499,56.736 71.569 C 55.919 71.607,55.231 71.653,55.208 71.673 C 55.156 71.717,54.888 71.785,54.657 71.813 C 54.560 71.824,54.523 71.903,54.576 71.988 C 54.751 72.271,54.333 72.364,52.615 72.428 C 49.284 72.552,38.208 72.501,35.965 72.352 C 35.808 72.342,35.539 72.183,35.368 71.998 C 35.044 71.651,34.325 71.554,31.792 71.517 C 31.173 71.508,30.685 71.444,30.708 71.375 C 30.731 71.306,30.683 71.238,30.602 71.223 C 30.521 71.207,30.393 71.096,30.318 70.976 C 30.169 70.734,28.001 70.649,28.000 70.885 C 28.000 70.959,27.925 70.973,27.833 70.917 C 27.742 70.860,27.667 70.968,27.667 71.157 C 27.667 71.470,27.171 71.622,26.470 71.524 C 26.408 71.515,26.178 71.712,25.960 71.962 C 25.741 72.212,25.420 72.498,25.246 72.597 C 25.040 72.715,24.911 73.005,24.874 73.431 C 24.799 74.322,24.718 74.509,24.453 74.408 C 24.285 74.343,24.217 74.525,24.189 75.119 C 24.167 75.558,24.127 76.120,24.099 76.368 C 24.064 76.673,24.175 76.939,24.440 77.189 C 24.656 77.392,24.833 77.683,24.833 77.837 C 24.833 78.131,25.385 78.726,25.527 78.584 C 25.573 78.538,25.620 78.594,25.630 78.708 C 25.686 79.325,26.109 80.167,26.363 80.167 C 26.527 80.167,26.666 80.322,26.697 80.542 C 26.726 80.748,26.919 80.991,27.125 81.081 C 27.331 81.172,27.500 81.346,27.500 81.468 C 27.500 81.763,27.915 82.167,28.219 82.167 C 28.352 82.167,28.502 82.322,28.552 82.512 C 28.601 82.703,28.797 82.899,28.988 82.948 C 29.301 83.030,29.406 83.199,29.354 83.538 C 29.344 83.605,29.560 83.775,29.835 83.917 C 30.109 84.059,30.333 84.269,30.333 84.384 C 30.333 84.499,30.558 84.679,30.833 84.782 C 31.108 84.886,31.333 85.074,31.333 85.199 C 31.333 85.324,31.558 85.512,31.833 85.616 C 32.108 85.719,32.333 85.921,32.333 86.064 C 32.333 86.237,32.425 86.288,32.611 86.216 C 32.797 86.145,32.849 86.174,32.768 86.305 C 32.701 86.412,32.708 86.506,32.782 86.514 C 32.856 86.522,33.092 86.547,33.307 86.570 C 33.704 86.614,33.993 86.916,33.997 87.292 C 33.999 87.419,34.231 87.500,34.594 87.500 C 35.272 87.500,35.890 87.773,35.745 88.009 C 35.621 88.208,36.367 88.500,37.000 88.500 C 37.327 88.500,37.510 88.602,37.581 88.825 C 37.677 89.127,38.113 89.378,38.441 89.319 C 39.156 89.191,40.500 89.364,40.500 89.583 C 40.500 89.799,41.120 89.833,45.083 89.833 C 49.046 89.833,49.667 89.799,49.667 89.583 C 49.667 89.392,49.878 89.333,50.572 89.333 C 51.645 89.333,52.333 89.107,52.333 88.754 C 52.333 88.595,52.505 88.489,52.792 88.471 C 53.951 88.399,54.333 88.239,54.333 87.825 C 54.333 87.616,54.432 87.538,54.645 87.579 C 54.987 87.645,56.000 87.099,56.000 86.849 C 56.000 86.763,56.225 86.644,56.500 86.583 C 56.837 86.509,57.000 86.372,57.000 86.164 C 57.000 85.927,57.167 85.829,57.713 85.747 C 58.267 85.664,58.488 85.532,58.705 85.153 C 58.866 84.874,59.125 84.667,59.314 84.667 C 59.529 84.667,59.662 84.536,59.697 84.292 C 59.730 84.054,59.884 83.898,60.115 83.865 C 60.339 83.833,60.499 83.675,60.531 83.455 C 60.564 83.233,60.741 83.060,61.000 83.000 C 61.256 82.940,61.436 82.767,61.468 82.551 C 61.499 82.339,61.682 82.157,61.925 82.096 C 62.149 82.040,62.323 81.939,62.313 81.872 C 62.237 81.380,62.370 81.167,62.750 81.167 C 63.014 81.167,63.167 81.073,63.167 80.911 C 63.167 80.560,63.661 79.833,63.899 79.833 C 64.006 79.833,64.110 79.635,64.131 79.392 C 64.171 78.897,64.467 78.460,64.674 78.588 C 64.749 78.634,64.903 78.413,65.017 78.098 C 65.132 77.782,65.352 77.490,65.507 77.450 C 65.675 77.406,65.834 77.132,65.902 76.770 C 65.972 76.395,66.171 76.062,66.424 75.896 C 66.649 75.749,66.833 75.491,66.833 75.324 C 66.833 75.157,66.927 74.960,67.042 74.887 C 67.241 74.761,67.323 74.734,67.646 74.688 C 67.726 74.676,67.837 74.441,67.892 74.165 C 67.947 73.890,68.061 73.683,68.146 73.707 C 68.231 73.731,68.321 73.675,68.346 73.583 C 68.372 73.492,68.493 73.317,68.615 73.195 C 68.737 73.073,68.802 72.917,68.760 72.849 C 68.717 72.781,68.942 72.481,69.258 72.182 C 69.574 71.884,69.833 71.579,69.833 71.506 C 69.833 71.432,69.983 71.333,70.167 71.285 C 70.366 71.233,70.500 71.058,70.500 70.849 C 70.500 70.613,70.606 70.500,70.827 70.500 C 71.090 70.500,71.642 69.876,71.528 69.708 C 71.513 69.685,71.556 69.659,71.625 69.650 C 71.976 69.604,72.333 69.287,72.333 69.022 C 72.333 68.857,72.427 68.711,72.542 68.697 C 73.494 68.583,73.833 68.439,73.833 68.148 C 73.833 67.975,73.908 67.824,74.000 67.813 C 74.606 67.737,75.000 67.475,75.000 67.149 C 75.000 66.943,75.117 66.833,75.337 66.833 C 75.539 66.833,75.735 66.675,75.825 66.440 C 75.933 66.155,76.188 65.992,76.744 65.852 C 77.168 65.745,77.475 65.594,77.426 65.515 C 77.307 65.322,77.648 65.070,78.208 64.936 C 78.517 64.863,78.667 64.719,78.667 64.497 C 78.667 64.201,78.897 64.107,79.443 64.182 C 79.504 64.190,79.620 64.077,79.702 63.932 C 79.783 63.786,79.963 63.667,80.101 63.667 C 80.240 63.667,80.309 63.595,80.255 63.508 C 80.174 63.378,80.825 62.881,80.958 62.972 C 80.981 62.987,81.006 62.944,81.014 62.875 C 81.044 62.611,81.387 62.333,81.684 62.333 C 81.875 62.333,82.034 62.174,82.098 61.917 C 82.193 61.541,82.352 61.426,82.703 61.479 C 82.837 61.499,83.130 61.010,83.140 60.750 C 83.144 60.658,83.317 60.543,83.526 60.494 C 83.751 60.441,83.943 60.239,84.001 59.994 C 84.061 59.736,84.234 59.563,84.465 59.530 C 84.668 59.501,84.833 59.361,84.833 59.219 C 84.833 59.077,85.058 58.704,85.333 58.391 C 85.608 58.078,85.833 57.642,85.833 57.422 C 85.833 57.135,85.939 57.008,86.208 56.970 C 86.452 56.935,86.602 56.783,86.638 56.533 C 86.669 56.310,86.862 56.084,87.097 55.995 C 87.320 55.910,87.493 55.783,87.481 55.712 C 87.470 55.641,87.475 55.546,87.493 55.500 C 87.510 55.454,87.558 55.229,87.598 55.000 C 87.705 54.387,87.828 54.106,87.940 54.218 C 88.161 54.439,88.500 53.816,88.500 53.190 C 88.500 52.675,88.574 52.499,88.825 52.419 C 89.228 52.291,89.318 52.014,89.362 50.750 C 89.392 49.922,89.471 49.681,89.822 49.346 L 90.246 48.943 90.228 45.430 C 90.208 41.644,90.141 40.536,89.939 40.667 C 89.625 40.870,89.387 40.029,89.311 38.443 C 89.279 37.770,89.208 37.611,88.886 37.488 C 88.535 37.355,88.362 36.705,88.480 35.958 C 88.491 35.890,88.425 35.824,88.333 35.813 C 88.242 35.801,88.080 35.782,87.975 35.771 C 87.869 35.759,87.751 35.563,87.712 35.333 C 87.621 34.804,87.535 34.428,87.492 34.375 C 87.473 34.352,87.449 34.247,87.438 34.141 C 87.426 34.035,87.274 33.928,87.100 33.902 C 86.729 33.848,86.497 33.534,86.610 33.240 C 86.654 33.127,86.608 32.983,86.509 32.922 C 86.409 32.861,86.366 32.749,86.412 32.674 C 86.458 32.599,86.385 32.445,86.248 32.332 C 86.112 32.219,85.994 32.191,85.987 32.271 C 85.980 32.351,85.880 32.154,85.764 31.833 C 85.648 31.512,85.449 31.250,85.321 31.250 C 85.193 31.250,84.989 31.044,84.868 30.792 C 84.747 30.540,84.538 30.333,84.403 30.333 C 84.269 30.333,84.087 30.144,83.999 29.914 C 83.911 29.683,83.650 29.422,83.420 29.334 C 83.162 29.236,83.000 29.045,83.000 28.837 C 83.000 28.614,82.890 28.500,82.676 28.500 C 82.488 28.500,82.260 28.310,82.134 28.049 C 82.015 27.801,81.743 27.557,81.532 27.507 C 81.320 27.457,81.168 27.342,81.193 27.250 C 81.219 27.158,81.001 26.933,80.708 26.750 C 80.416 26.567,80.133 26.287,80.079 26.128 C 80.024 25.970,79.928 25.850,79.865 25.863 C 79.664 25.904,79.166 25.636,79.233 25.524 C 79.292 25.428,78.905 24.972,78.795 25.007 C 78.770 25.015,78.637 24.985,78.500 24.941 C 78.362 24.897,78.041 24.815,77.784 24.759 C 77.528 24.703,77.266 24.528,77.201 24.370 C 77.098 24.118,76.154 23.901,75.969 24.086 " stroke="none" fill="#e4543c" fill-rule="evenodd"></path><path id="path1" d="M215.333 42.967 C 215.333 60.348,215.380 65.646,215.533 65.800 C 215.871 66.138,222.268 66.078,222.399 65.736 C 222.454 65.591,222.500 55.316,222.500 42.903 L 222.500 20.333 218.917 20.333 L 215.333 20.333 215.333 42.967 M230.667 43.167 L 230.667 66.000 235.083 66.000 L 239.500 66.000 239.500 57.012 L 239.500 48.023 239.868 47.970 C 240.339 47.902,240.462 47.448,240.483 45.708 C 240.498 44.476,240.533 44.333,240.816 44.333 C 241.186 44.333,241.333 44.022,241.333 43.236 C 241.333 42.740,241.387 42.667,241.750 42.667 C 242.075 42.667,242.167 42.581,242.167 42.280 C 242.167 41.945,242.283 41.874,243.042 41.739 C 243.769 41.609,243.926 41.519,243.971 41.203 C 244.054 40.617,247.719 40.698,247.803 41.287 C 247.846 41.595,247.995 41.677,248.678 41.767 C 249.401 41.863,249.500 41.924,249.500 42.271 C 249.500 42.580,249.590 42.667,249.910 42.667 C 250.305 42.667,250.321 42.711,250.368 43.958 C 250.416 45.230,250.424 45.251,250.875 45.303 L 251.333 45.355 251.333 55.678 L 251.333 66.000 255.751 66.000 L 260.169 66.000 260.126 53.042 L 260.083 40.083 259.717 40.031 C 259.401 39.986,259.343 39.860,259.300 39.115 C 259.257 38.370,259.199 38.243,258.884 38.198 C 258.575 38.154,258.510 38.023,258.467 37.365 C 258.421 36.651,258.377 36.579,257.958 36.531 C 257.599 36.489,257.500 36.391,257.500 36.075 C 257.500 35.789,257.384 35.644,257.098 35.572 C 256.858 35.512,256.655 35.309,256.595 35.069 C 256.505 34.712,256.401 34.667,255.675 34.667 C 254.905 34.667,254.852 34.639,254.803 34.208 C 254.754 33.784,254.688 33.746,253.911 33.701 C 253.233 33.661,253.042 33.582,252.911 33.284 C 252.752 32.922,252.690 32.916,248.875 32.872 L 245.000 32.827 245.000 33.240 C 245.000 33.639,244.959 33.654,243.708 33.701 C 242.437 33.749,242.416 33.757,242.364 34.208 C 242.316 34.628,242.251 34.667,241.606 34.667 C 240.854 34.667,240.500 34.887,240.500 35.355 C 240.500 35.527,240.349 35.665,240.125 35.697 C 239.809 35.742,239.734 35.882,239.651 36.583 C 239.597 37.042,239.541 33.573,239.526 28.875 L 239.500 20.333 235.083 20.333 L 230.667 20.333 230.667 43.167 M108.374 43.542 L 108.417 65.917 111.500 65.917 L 114.583 65.917 114.626 56.958 L 114.670 48.000 119.574 48.000 L 124.478 48.000 124.531 48.458 C 124.572 48.816,124.682 48.928,125.033 48.969 C 125.450 49.017,125.487 49.084,125.533 49.885 C 125.576 50.630,125.634 50.757,125.949 50.802 C 126.249 50.845,126.324 50.979,126.366 51.552 C 126.405 52.084,126.504 52.288,126.784 52.411 C 126.997 52.505,127.172 52.751,127.201 52.995 C 127.238 53.314,127.360 53.429,127.699 53.469 C 128.098 53.515,128.154 53.599,128.199 54.219 C 128.238 54.750,128.338 54.955,128.617 55.078 C 128.830 55.171,129.006 55.417,129.034 55.661 C 129.072 55.983,129.193 56.096,129.542 56.136 C 129.972 56.186,130.000 56.238,130.000 57.008 C 130.000 57.743,130.043 57.838,130.417 57.932 C 130.716 58.007,130.833 58.149,130.833 58.435 C 130.833 58.749,130.922 58.833,131.250 58.833 C 131.630 58.833,131.667 58.897,131.667 59.550 C 131.667 60.318,131.885 60.667,132.367 60.667 C 132.576 60.667,132.667 60.793,132.667 61.083 C 132.667 61.414,132.751 61.500,133.075 61.500 C 133.449 61.500,133.487 61.571,133.533 62.375 C 133.580 63.187,133.616 63.254,134.033 63.302 C 134.441 63.349,134.487 63.425,134.533 64.135 C 134.575 64.793,134.641 64.925,134.948 64.969 C 135.204 65.005,135.329 65.155,135.365 65.469 L 135.417 65.917 139.146 65.962 C 143.496 66.014,143.369 66.056,143.299 64.599 C 143.256 63.699,143.208 63.577,142.885 63.531 C 142.630 63.495,142.505 63.345,142.468 63.031 C 142.428 62.685,142.315 62.572,141.967 62.531 C 141.559 62.484,141.513 62.408,141.467 61.698 C 141.427 61.074,141.341 60.883,141.042 60.752 C 140.812 60.651,140.667 60.442,140.667 60.210 C 140.667 59.925,140.571 59.833,140.271 59.833 C 139.923 59.833,139.863 59.735,139.766 59.002 C 139.673 58.300,139.591 58.154,139.244 58.067 C 138.951 57.993,138.833 57.850,138.833 57.565 C 138.833 57.253,138.744 57.167,138.425 57.167 C 138.051 57.167,138.013 57.095,137.967 56.292 C 137.920 55.476,137.886 55.413,137.458 55.364 C 137.074 55.320,137.000 55.232,137.000 54.822 C 137.000 54.415,136.932 54.333,136.592 54.333 C 136.225 54.333,136.180 54.256,136.134 53.542 C 136.091 52.873,136.027 52.742,135.718 52.698 C 135.463 52.662,135.338 52.512,135.302 52.198 C 135.262 51.851,135.148 51.738,134.800 51.698 C 134.383 51.650,134.346 51.582,134.300 50.781 C 134.257 50.030,134.201 49.910,133.875 49.863 C 133.604 49.825,133.500 49.698,133.500 49.405 C 133.500 49.084,133.413 49.000,133.083 49.000 C 132.694 49.000,132.667 48.944,132.667 48.167 C 132.667 47.626,132.594 47.324,132.458 47.306 C 132.344 47.291,132.662 47.235,133.167 47.181 C 133.891 47.104,134.116 47.008,134.240 46.726 C 134.358 46.458,134.599 46.341,135.197 46.262 C 135.866 46.173,136.013 46.089,136.100 45.744 C 136.173 45.451,136.317 45.333,136.601 45.333 C 136.910 45.333,137.000 45.244,137.000 44.938 C 137.000 44.631,137.113 44.519,137.500 44.442 C 137.897 44.362,138.000 44.255,138.000 43.921 C 138.000 43.583,138.082 43.500,138.417 43.500 C 138.745 43.500,138.833 43.415,138.833 43.101 C 138.833 42.817,138.951 42.673,139.244 42.600 C 139.589 42.513,139.673 42.366,139.762 41.697 C 139.841 41.099,139.958 40.858,140.226 40.740 C 140.561 40.593,140.586 40.449,140.630 38.458 L 140.677 36.333 141.095 36.333 C 141.710 36.333,141.662 33.785,141.046 33.697 C 140.684 33.646,140.674 33.587,140.629 31.114 C 140.585 28.670,140.570 28.578,140.208 28.419 C 139.978 28.318,139.833 28.108,139.833 27.877 C 139.833 27.569,139.742 27.500,139.333 27.500 C 138.838 27.500,138.833 27.491,138.833 26.583 C 138.833 25.717,138.811 25.667,138.417 25.667 C 138.083 25.667,138.000 25.583,138.000 25.250 C 138.000 24.900,137.921 24.833,137.512 24.833 C 137.132 24.833,137.011 24.750,136.970 24.458 C 136.927 24.157,136.763 24.054,136.133 23.932 C 135.525 23.814,135.338 23.702,135.300 23.432 C 135.258 23.137,135.116 23.076,134.375 23.033 C 133.583 22.987,133.500 22.946,133.500 22.592 C 133.500 22.071,133.248 22.000,131.403 22.000 C 129.840 22.000,129.833 21.998,129.833 21.583 L 129.833 21.167 119.083 21.167 L 108.332 21.167 108.374 43.542 M390.667 25.247 C 390.667 25.630,390.605 25.667,389.950 25.667 C 389.049 25.667,388.833 25.883,388.833 26.783 C 388.833 27.438,388.797 27.500,388.413 27.500 L 387.992 27.500 388.038 30.542 C 388.083 33.553,388.087 33.584,388.458 33.637 C 388.750 33.678,388.833 33.799,388.833 34.178 C 388.833 34.588,388.900 34.667,389.250 34.667 C 389.583 34.667,389.667 34.750,389.667 35.083 C 389.667 35.435,389.744 35.500,390.167 35.500 C 390.589 35.500,390.667 35.565,390.667 35.917 L 390.667 36.333 394.163 36.333 L 397.660 36.333 397.765 35.917 C 397.840 35.618,397.982 35.500,398.268 35.500 C 398.579 35.500,398.667 35.411,398.667 35.095 C 398.667 34.802,398.770 34.675,399.042 34.637 C 399.368 34.590,399.423 34.471,399.467 33.708 C 399.503 33.079,399.585 32.833,399.759 32.833 C 399.957 32.833,400.000 32.436,400.000 30.583 C 400.000 28.694,399.960 28.333,399.750 28.333 C 399.558 28.333,399.500 28.120,399.500 27.417 C 399.500 26.550,399.477 26.500,399.083 26.500 C 398.750 26.500,398.667 26.417,398.667 26.083 C 398.667 25.753,398.583 25.667,398.262 25.667 C 397.968 25.667,397.842 25.563,397.803 25.292 C 397.750 24.918,397.739 24.917,394.208 24.872 L 390.667 24.827 390.667 25.247 M363.780 25.775 C 363.718 25.838,363.667 27.639,363.667 29.778 L 363.667 33.667 361.625 33.669 C 358.924 33.673,359.151 33.327,359.205 37.345 L 359.250 40.750 361.457 40.796 L 363.664 40.843 363.707 50.713 L 363.750 60.583 364.117 60.635 C 364.433 60.680,364.490 60.807,364.533 61.552 C 364.580 62.353,364.617 62.421,365.033 62.469 C 365.441 62.516,365.487 62.592,365.533 63.302 L 365.583 64.083 366.365 64.134 C 367.075 64.179,367.151 64.225,367.198 64.634 C 367.246 65.050,367.315 65.087,368.109 65.133 C 368.862 65.177,368.981 65.233,369.070 65.591 L 369.173 66.000 374.156 66.000 C 379.432 66.000,379.667 65.978,379.667 65.482 C 379.667 65.243,379.787 65.167,380.167 65.167 L 380.667 65.167 380.667 61.583 L 380.667 58.000 377.512 58.000 C 374.367 58.000,374.356 57.999,374.303 57.625 C 374.269 57.387,374.116 57.231,373.884 57.198 C 373.575 57.154,373.510 57.023,373.467 56.365 C 373.427 55.741,373.341 55.550,373.042 55.419 L 372.667 55.254 372.667 48.044 L 372.667 40.833 376.253 40.833 L 379.840 40.833 379.795 37.292 L 379.750 33.750 376.211 33.705 L 372.673 33.660 372.628 29.705 L 372.583 25.750 368.239 25.706 C 365.849 25.681,363.843 25.712,363.780 25.775 M128.167 27.732 C 128.167 28.234,128.429 28.333,129.764 28.333 C 130.794 28.333,130.833 28.349,130.833 28.750 C 130.833 29.080,130.917 29.167,131.239 29.167 C 131.558 29.167,131.656 29.265,131.697 29.625 C 131.739 29.985,131.848 30.095,132.208 30.136 C 132.568 30.177,132.667 30.276,132.667 30.594 C 132.667 30.916,132.753 31.000,133.083 31.000 C 133.484 31.000,133.500 31.040,133.500 32.070 C 133.500 33.404,133.599 33.667,134.101 33.667 C 134.490 33.667,134.500 33.701,134.500 35.072 L 134.500 36.478 134.042 36.531 C 133.614 36.580,133.580 36.642,133.533 37.458 C 133.491 38.179,133.428 38.333,133.176 38.333 C 132.815 38.333,132.667 38.649,132.667 39.419 C 132.667 39.905,132.607 39.985,132.208 40.031 C 131.848 40.072,131.739 40.182,131.697 40.542 C 131.648 40.973,131.595 41.000,130.822 41.000 C 130.059 41.000,130.000 41.030,130.000 41.411 C 130.000 41.820,129.989 41.822,128.208 41.869 C 126.494 41.915,126.414 41.933,126.363 42.292 L 126.310 42.667 120.488 42.667 L 114.667 42.667 114.667 35.000 L 114.667 27.333 121.417 27.333 L 128.167 27.333 128.167 27.732 M391.500 30.500 L 391.500 32.000 391.000 32.000 L 390.500 32.000 390.500 30.594 C 390.500 29.189,390.500 29.189,390.958 29.119 C 391.210 29.081,391.435 29.039,391.458 29.025 C 391.481 29.011,391.500 29.675,391.500 30.500 M159.667 33.250 L 159.667 33.667 157.875 33.683 C 155.728 33.703,155.268 33.807,155.198 34.290 C 155.154 34.591,155.018 34.657,154.365 34.700 C 153.751 34.739,153.549 34.827,153.425 35.111 C 153.337 35.310,153.058 35.513,152.800 35.565 C 152.437 35.638,152.333 35.752,152.333 36.079 C 152.333 36.417,152.251 36.500,151.917 36.500 C 151.583 36.500,151.500 36.583,151.500 36.917 C 151.500 37.250,151.417 37.333,151.083 37.333 C 150.753 37.333,150.667 37.417,150.667 37.739 C 150.667 38.058,150.568 38.156,150.208 38.197 C 149.859 38.237,149.738 38.351,149.701 38.672 C 149.672 38.916,149.497 39.162,149.284 39.255 C 148.992 39.384,148.906 39.579,148.866 40.208 C 148.820 40.923,148.775 41.000,148.408 41.000 C 148.009 41.000,148.000 41.030,148.000 42.333 L 148.000 43.667 147.500 43.667 L 147.000 43.667 147.000 49.917 L 147.000 56.167 147.493 56.167 L 147.986 56.167 148.035 57.458 C 148.080 58.654,148.111 58.754,148.458 58.803 C 148.762 58.846,148.833 58.963,148.833 59.415 C 148.833 60.183,148.981 60.500,149.340 60.500 C 149.548 60.500,149.661 60.645,149.697 60.958 C 149.739 61.318,149.848 61.428,150.208 61.469 C 150.592 61.514,150.667 61.602,150.667 62.011 C 150.667 62.421,150.734 62.500,151.083 62.500 C 151.417 62.500,151.500 62.583,151.500 62.917 C 151.500 63.247,151.584 63.333,151.905 63.333 C 152.198 63.333,152.325 63.437,152.363 63.708 C 152.410 64.034,152.530 64.090,153.281 64.133 C 154.082 64.180,154.150 64.217,154.198 64.633 C 154.246 65.050,154.314 65.087,155.115 65.133 C 155.860 65.176,155.986 65.234,156.031 65.550 L 156.083 65.917 161.833 65.917 L 167.583 65.917 167.635 65.550 C 167.680 65.234,167.807 65.176,168.552 65.133 C 169.353 65.087,169.421 65.050,169.469 64.634 C 169.516 64.225,169.592 64.179,170.302 64.134 C 170.967 64.091,171.091 64.028,171.137 63.708 C 171.175 63.438,171.302 63.333,171.592 63.333 C 171.879 63.333,172.023 63.217,172.096 62.926 C 172.158 62.678,172.339 62.499,172.557 62.468 C 172.807 62.432,172.932 62.280,172.968 61.969 C 173.005 61.655,173.130 61.505,173.385 61.469 C 173.681 61.426,173.778 61.257,173.901 60.570 C 174.009 59.959,174.149 59.681,174.401 59.570 C 174.724 59.428,174.753 59.265,174.797 57.375 L 174.844 55.333 171.755 55.333 L 168.667 55.333 168.667 56.250 C 168.667 57.157,168.662 57.167,168.167 57.167 C 167.744 57.167,167.667 57.231,167.667 57.583 C 167.667 57.917,167.583 58.000,167.250 58.000 C 166.920 58.000,166.833 58.084,166.833 58.406 C 166.833 58.724,166.735 58.823,166.375 58.864 C 166.015 58.905,165.905 59.015,165.864 59.375 C 165.814 59.806,165.762 59.833,164.989 59.833 C 164.223 59.833,164.167 59.862,164.167 60.250 L 164.167 60.667 161.833 60.667 L 159.500 60.667 159.500 60.250 C 159.500 59.861,159.444 59.833,158.667 59.833 C 157.975 59.833,157.833 59.782,157.833 59.533 C 157.833 59.164,157.521 58.833,157.173 58.833 C 157.030 58.833,156.838 58.665,156.748 58.458 C 156.657 58.252,156.419 58.060,156.219 58.031 C 155.991 57.999,155.834 57.842,155.802 57.615 C 155.769 57.384,155.612 57.230,155.375 57.197 C 155.084 57.155,155.000 57.035,155.000 56.655 C 155.000 56.247,154.932 56.167,154.590 56.167 C 154.195 56.167,154.179 56.123,154.132 54.875 C 154.087 53.680,154.055 53.579,153.708 53.530 C 153.372 53.482,153.333 53.383,153.333 52.572 L 153.333 51.667 164.500 51.667 L 175.667 51.667 175.667 48.583 L 175.667 45.500 175.250 45.500 L 174.833 45.500 174.833 43.667 L 174.833 41.833 174.417 41.833 C 174.027 41.833,173.999 41.776,173.983 40.958 C 173.960 39.724,173.800 39.259,173.378 39.198 C 173.130 39.162,173.004 39.008,172.968 38.698 C 172.932 38.380,172.808 38.235,172.542 38.197 C 172.270 38.158,172.167 38.032,172.167 37.738 C 172.167 37.399,172.085 37.333,171.667 37.333 C 171.244 37.333,171.167 37.269,171.167 36.917 C 171.167 36.583,171.083 36.500,170.750 36.500 C 170.398 36.500,170.333 36.422,170.333 36.000 C 170.333 35.582,170.267 35.500,169.928 35.500 C 169.635 35.500,169.508 35.396,169.470 35.125 C 169.424 34.798,169.304 34.744,168.542 34.700 C 167.750 34.654,167.667 34.612,167.667 34.259 C 167.667 33.738,167.414 33.667,165.570 33.667 C 164.006 33.667,164.000 33.665,164.000 33.250 L 164.000 32.833 161.833 32.833 L 159.667 32.833 159.667 33.250 M192.000 33.244 C 192.000 33.653,191.989 33.656,190.208 33.703 L 188.417 33.750 188.365 34.200 C 188.317 34.617,188.249 34.654,187.448 34.700 C 186.717 34.742,186.576 34.804,186.534 35.099 C 186.495 35.369,186.308 35.481,185.700 35.599 C 185.079 35.719,184.906 35.826,184.865 36.115 C 184.832 36.342,184.675 36.499,184.448 36.531 C 184.159 36.573,184.052 36.746,183.932 37.367 C 183.814 37.975,183.702 38.162,183.432 38.200 C 183.137 38.242,183.076 38.384,183.033 39.115 C 182.987 39.916,182.950 39.983,182.533 40.031 L 182.083 40.083 182.083 42.250 L 182.083 44.417 185.208 44.462 L 188.333 44.507 188.333 43.599 C 188.333 42.783,188.372 42.684,188.708 42.637 C 189.035 42.590,189.090 42.471,189.134 41.708 C 189.182 40.862,189.200 40.833,189.675 40.833 C 190.085 40.833,190.167 40.766,190.167 40.426 C 190.167 40.058,190.244 40.013,190.958 39.967 C 191.683 39.921,191.754 39.878,191.803 39.458 L 191.855 39.000 194.178 39.000 C 196.303 39.000,196.500 39.025,196.500 39.300 C 196.500 39.781,196.849 40.000,197.617 40.000 C 198.270 40.000,198.333 40.037,198.333 40.417 C 198.333 40.747,198.417 40.833,198.739 40.833 C 199.058 40.833,199.156 40.932,199.197 41.292 C 199.235 41.620,199.356 41.765,199.625 41.803 C 199.988 41.855,200.000 41.916,200.000 43.667 C 200.000 45.417,199.988 45.479,199.625 45.530 C 199.385 45.564,199.231 45.717,199.197 45.955 C 199.145 46.324,199.120 46.327,195.697 46.372 C 192.302 46.416,192.247 46.422,192.085 46.792 C 191.928 47.150,191.833 47.167,189.974 47.167 C 187.733 47.167,187.500 47.223,187.500 47.768 C 187.500 48.155,187.462 48.167,186.167 48.167 C 184.856 48.167,184.833 48.174,184.833 48.583 C 184.833 48.935,184.756 49.000,184.333 49.000 C 183.916 49.000,183.833 49.067,183.833 49.401 C 183.833 49.755,183.737 49.815,183.014 49.915 L 182.194 50.027 182.083 50.837 C 181.992 51.498,181.905 51.657,181.611 51.699 C 181.301 51.743,181.243 51.874,181.200 52.625 C 181.153 53.429,181.116 53.500,180.741 53.500 L 180.333 53.500 180.333 56.583 L 180.333 59.667 180.750 59.667 C 181.151 59.667,181.167 59.706,181.167 60.736 C 181.167 62.014,181.268 62.333,181.673 62.333 C 181.882 62.333,181.995 62.478,182.031 62.792 C 182.072 63.152,182.182 63.261,182.542 63.303 C 182.898 63.344,183.000 63.444,183.000 63.750 C 183.000 64.056,183.102 64.156,183.458 64.197 C 183.785 64.235,183.932 64.357,183.969 64.621 C 184.013 64.926,184.161 65.010,184.812 65.096 C 185.401 65.174,185.643 65.292,185.760 65.559 C 185.915 65.912,185.978 65.917,191.125 65.961 L 196.333 66.005 196.333 65.586 C 196.333 65.189,196.382 65.167,197.250 65.167 C 198.157 65.167,198.167 65.162,198.167 64.667 C 198.167 64.172,198.176 64.167,199.083 64.167 C 199.950 64.167,200.000 64.144,200.000 63.750 C 200.000 63.417,200.083 63.333,200.417 63.333 C 200.752 63.333,200.840 63.244,200.866 62.875 C 200.884 62.623,200.940 63.204,200.991 64.167 L 201.083 65.917 204.333 65.958 C 208.058 66.005,207.987 66.027,208.116 64.779 C 208.221 63.761,208.033 63.333,207.480 63.333 C 207.177 63.333,207.167 62.979,207.167 52.167 L 207.167 41.000 206.750 41.000 C 206.346 41.000,206.333 40.966,206.333 39.845 C 206.333 38.666,206.107 38.167,205.571 38.167 C 205.429 38.167,205.333 38.000,205.333 37.750 C 205.333 37.417,205.250 37.333,204.917 37.333 C 204.553 37.333,204.500 37.260,204.500 36.764 C 204.500 35.837,204.369 35.683,203.484 35.565 C 202.766 35.470,202.667 35.409,202.667 35.062 C 202.667 34.695,202.603 34.667,201.761 34.667 C 200.897 34.667,200.853 34.646,200.803 34.208 L 200.750 33.750 199.058 33.703 C 197.416 33.657,197.364 33.643,197.263 33.244 L 197.160 32.833 194.580 32.833 L 192.000 32.833 192.000 33.244 M277.333 33.243 C 277.333 33.639,277.289 33.654,276.042 33.701 C 274.776 33.749,274.749 33.759,274.698 34.200 C 274.650 34.617,274.582 34.654,273.781 34.700 C 273.030 34.743,272.910 34.799,272.863 35.125 C 272.819 35.440,272.707 35.500,272.167 35.500 C 271.508 35.500,271.000 35.832,271.000 36.262 C 271.000 36.405,270.833 36.500,270.583 36.500 C 270.250 36.500,270.167 36.583,270.167 36.917 C 270.167 37.250,270.083 37.333,269.750 37.333 C 269.417 37.333,269.333 37.417,269.333 37.750 C 269.333 38.000,269.238 38.167,269.095 38.167 C 268.665 38.167,268.333 38.675,268.333 39.334 C 268.333 39.874,268.273 39.985,267.958 40.030 C 267.632 40.076,267.577 40.196,267.533 40.948 C 267.487 41.749,267.450 41.817,267.033 41.865 C 266.593 41.916,266.582 41.943,266.535 43.208 C 266.488 44.456,266.472 44.500,266.076 44.500 L 265.667 44.500 265.667 49.833 L 265.667 55.167 266.083 55.167 C 266.488 55.167,266.500 55.201,266.500 56.321 C 266.500 57.494,266.727 58.000,267.253 58.000 C 267.408 58.000,267.498 58.256,267.533 58.792 C 267.575 59.460,267.640 59.591,267.948 59.635 C 268.204 59.672,268.329 59.822,268.365 60.135 C 268.405 60.484,268.518 60.595,268.875 60.636 C 269.235 60.677,269.333 60.776,269.333 61.094 C 269.333 61.416,269.420 61.500,269.750 61.500 C 270.102 61.500,270.167 61.578,270.167 62.000 C 270.167 62.422,270.231 62.500,270.583 62.500 C 270.917 62.500,271.000 62.583,271.000 62.917 C 271.000 63.269,271.078 63.333,271.500 63.333 C 271.922 63.333,272.000 63.398,272.000 63.750 C 272.000 64.144,272.050 64.167,272.917 64.167 C 273.824 64.167,273.833 64.172,273.833 64.667 C 273.833 65.154,273.854 65.167,274.649 65.167 C 275.379 65.167,275.475 65.210,275.568 65.583 L 275.673 66.000 281.573 66.000 C 287.770 66.000,288.000 65.982,288.000 65.491 C 288.000 65.238,288.155 65.175,288.875 65.134 C 289.687 65.087,289.754 65.051,289.802 64.633 C 289.850 64.217,289.918 64.180,290.719 64.133 C 291.463 64.090,291.591 64.032,291.635 63.718 C 291.672 63.463,291.822 63.338,292.135 63.302 C 292.449 63.266,292.599 63.141,292.635 62.885 C 292.668 62.658,292.825 62.501,293.052 62.469 C 293.310 62.432,293.432 62.282,293.469 61.958 C 293.511 61.598,293.609 61.500,293.928 61.500 C 294.308 61.500,294.333 61.443,294.333 60.583 C 294.333 59.676,294.338 59.667,294.833 59.667 C 295.321 59.667,295.333 59.647,295.333 58.845 C 295.333 58.120,295.377 58.017,295.708 57.970 C 296.070 57.919,296.083 57.855,296.083 56.167 L 296.083 54.417 291.667 54.417 L 287.250 54.417 287.200 55.281 C 287.157 56.026,287.099 56.153,286.783 56.198 C 286.524 56.235,286.401 56.384,286.364 56.708 C 286.323 57.068,286.224 57.167,285.906 57.167 C 285.586 57.167,285.500 57.254,285.500 57.574 C 285.500 57.942,285.423 57.987,284.708 58.033 C 284.074 58.073,283.884 58.158,283.752 58.458 C 283.593 58.820,283.509 58.833,281.389 58.833 C 279.235 58.833,279.189 58.826,279.137 58.458 C 279.099 58.192,278.953 58.068,278.635 58.032 C 278.325 57.996,278.171 57.870,278.135 57.622 C 278.103 57.399,277.926 57.227,277.667 57.167 C 277.408 57.106,277.230 56.934,277.198 56.712 C 277.166 56.492,277.006 56.334,276.781 56.302 C 276.524 56.265,276.401 56.115,276.364 55.792 C 276.323 55.434,276.224 55.333,275.913 55.333 C 275.531 55.333,275.512 55.279,275.465 54.049 C 275.419 52.839,275.393 52.757,275.000 52.649 C 274.771 52.585,279.440 52.526,285.375 52.517 L 296.167 52.500 296.167 47.670 L 296.167 42.840 295.750 42.735 C 295.387 42.644,295.333 42.539,295.333 41.919 C 295.333 40.718,295.168 40.190,294.773 40.134 C 294.524 40.099,294.401 39.945,294.364 39.625 C 294.323 39.268,294.223 39.167,293.914 39.167 C 293.553 39.167,293.513 39.088,293.467 38.292 C 293.424 37.537,293.366 37.410,293.052 37.365 C 292.825 37.332,292.668 37.175,292.635 36.948 C 292.599 36.690,292.449 36.568,292.125 36.531 C 291.771 36.490,291.667 36.389,291.667 36.090 C 291.667 35.638,291.390 35.500,290.486 35.500 C 289.901 35.500,289.833 35.457,289.833 35.083 C 289.833 34.755,289.749 34.667,289.435 34.667 C 289.154 34.667,289.007 34.549,288.937 34.271 C 288.825 33.826,288.308 33.667,286.979 33.667 C 286.293 33.667,286.167 33.618,286.167 33.351 C 286.167 32.861,285.912 32.833,281.486 32.833 L 277.333 32.833 277.333 33.243 M310.869 33.031 C 310.758 33.142,310.667 33.331,310.667 33.450 C 310.667 33.598,310.390 33.672,309.792 33.683 C 308.556 33.707,308.093 33.866,308.031 34.290 C 307.988 34.591,307.852 34.657,307.198 34.700 C 306.574 34.740,306.383 34.826,306.252 35.125 C 306.162 35.331,305.970 35.500,305.827 35.500 C 305.479 35.500,305.167 35.831,305.167 36.200 C 305.167 36.409,305.040 36.500,304.750 36.500 C 304.420 36.500,304.333 36.584,304.333 36.905 C 304.333 37.198,304.230 37.325,303.958 37.363 C 303.632 37.410,303.577 37.529,303.533 38.292 C 303.484 39.138,303.466 39.167,302.991 39.167 C 302.508 39.167,302.500 39.181,302.500 40.072 C 302.500 40.883,302.461 40.982,302.125 41.030 C 301.761 41.082,301.749 41.148,301.703 43.208 L 301.657 45.333 306.078 45.333 L 310.500 45.333 310.500 44.428 C 310.500 43.564,310.521 43.520,310.958 43.469 C 311.378 43.421,311.421 43.350,311.467 42.625 C 311.513 41.910,311.558 41.833,311.926 41.833 C 312.268 41.833,312.333 41.753,312.333 41.333 L 312.333 40.833 313.667 40.833 C 314.978 40.833,315.000 40.826,315.000 40.417 C 315.000 39.832,315.947 39.794,316.030 40.375 C 316.079 40.722,316.180 40.754,317.365 40.798 C 318.620 40.846,318.647 40.856,318.698 41.298 C 318.739 41.651,318.850 41.762,319.208 41.803 C 319.639 41.852,319.667 41.905,319.667 42.678 C 319.667 43.444,319.695 43.500,320.083 43.500 C 320.481 43.500,320.500 43.544,320.500 44.500 L 320.500 45.500 318.753 45.500 C 317.029 45.500,317.005 45.505,316.902 45.917 L 316.797 46.333 313.318 46.333 L 309.840 46.333 309.735 46.750 C 309.633 47.155,309.589 47.167,308.162 47.167 C 306.422 47.167,306.167 47.243,306.167 47.759 C 306.167 48.112,306.084 48.154,305.292 48.200 C 304.529 48.244,304.410 48.298,304.363 48.625 C 304.325 48.896,304.198 49.000,303.905 49.000 C 303.587 49.000,303.500 49.087,303.500 49.406 C 303.500 49.724,303.402 49.823,303.042 49.864 C 302.682 49.905,302.572 50.015,302.531 50.375 C 302.490 50.731,302.390 50.833,302.083 50.833 C 301.777 50.833,301.677 50.936,301.636 51.292 C 301.599 51.612,301.476 51.765,301.227 51.801 C 300.716 51.874,300.664 52.339,300.683 56.729 C 300.702 60.985,300.754 61.391,301.298 61.470 C 301.582 61.511,301.667 61.635,301.667 62.012 C 301.667 62.421,301.734 62.500,302.083 62.500 C 302.417 62.500,302.500 62.583,302.500 62.917 C 302.500 63.269,302.578 63.333,303.000 63.333 C 303.422 63.333,303.500 63.398,303.500 63.750 C 303.500 64.080,303.584 64.167,303.906 64.167 C 304.224 64.167,304.323 64.265,304.364 64.625 C 304.413 65.052,304.476 65.087,305.281 65.133 C 306.026 65.176,306.153 65.234,306.198 65.550 L 306.250 65.917 311.500 65.917 L 316.750 65.917 316.802 65.550 C 316.847 65.234,316.974 65.176,317.719 65.133 C 318.516 65.087,318.587 65.049,318.635 64.640 C 318.716 63.937,320.429 63.850,320.567 64.542 C 320.629 64.855,320.762 65.000,320.985 65.000 C 321.217 65.000,321.326 65.132,321.364 65.458 L 321.417 65.917 325.833 65.917 L 330.250 65.917 330.250 64.250 C 330.250 62.648,330.235 62.581,329.875 62.530 L 329.500 62.477 329.500 51.843 C 329.500 40.437,329.489 40.213,328.939 40.134 C 328.637 40.091,328.571 39.944,328.500 39.167 C 328.428 38.373,328.366 38.243,328.042 38.197 C 327.770 38.158,327.667 38.032,327.667 37.738 C 327.667 37.401,327.585 37.333,327.176 37.333 C 326.708 37.333,326.682 37.295,326.634 36.542 L 326.583 35.750 325.800 35.599 C 325.192 35.481,325.005 35.369,324.966 35.099 C 324.924 34.804,324.783 34.742,324.052 34.700 C 323.251 34.654,323.183 34.617,323.135 34.200 C 323.084 33.760,323.056 33.749,321.802 33.702 C 320.625 33.657,320.517 33.623,320.469 33.285 L 320.417 32.917 315.744 32.872 C 312.250 32.839,311.021 32.879,310.869 33.031 M352.000 33.243 C 352.000 33.639,351.956 33.654,350.708 33.701 C 349.443 33.749,349.416 33.759,349.365 34.200 C 349.318 34.608,349.241 34.654,348.531 34.700 C 347.908 34.740,347.717 34.826,347.585 35.125 C 347.495 35.331,347.332 35.500,347.222 35.500 C 347.113 35.500,346.906 35.618,346.762 35.762 C 346.524 36.000,346.500 35.925,346.500 34.932 C 346.500 33.556,346.879 33.645,341.250 33.703 L 336.750 33.750 336.750 49.833 L 336.750 65.917 341.396 65.961 C 344.685 65.992,346.110 65.950,346.271 65.816 C 346.460 65.659,346.500 64.015,346.500 56.408 L 346.500 47.190 346.875 47.137 C 347.202 47.090,347.256 46.971,347.300 46.208 C 347.349 45.362,347.367 45.333,347.842 45.333 C 348.251 45.333,348.333 45.266,348.333 44.928 C 348.333 44.635,348.437 44.508,348.708 44.470 C 348.974 44.432,349.098 44.286,349.135 43.968 C 349.175 43.622,349.289 43.508,349.635 43.468 C 349.953 43.432,350.099 43.308,350.137 43.042 C 350.184 42.711,350.286 42.667,351.012 42.667 C 351.775 42.667,351.833 42.637,351.833 42.254 L 351.833 41.842 354.542 41.796 L 357.250 41.750 357.297 37.667 C 357.359 32.244,357.690 32.833,354.580 32.833 L 352.000 32.833 352.000 33.243 M164.167 39.500 C 164.167 39.989,164.185 40.000,165.000 40.000 C 165.778 40.000,165.833 40.028,165.833 40.417 C 165.833 40.769,165.911 40.833,166.333 40.833 C 166.778 40.833,166.833 40.889,166.833 41.333 C 166.833 41.756,166.898 41.833,167.250 41.833 C 167.631 41.833,167.667 41.896,167.667 42.562 C 167.667 43.782,167.831 44.309,168.227 44.366 C 168.537 44.410,168.590 44.542,168.633 45.375 L 168.683 46.333 161.383 46.334 L 154.083 46.334 154.137 44.917 C 154.190 43.543,154.203 43.500,154.596 43.500 C 154.911 43.500,155.000 43.412,155.000 43.101 C 155.000 42.818,155.117 42.673,155.405 42.601 C 155.658 42.538,155.830 42.359,155.863 42.125 C 155.898 41.884,156.051 41.731,156.291 41.697 C 156.522 41.664,156.704 41.492,156.765 41.248 C 156.825 41.011,157.009 40.832,157.224 40.801 C 157.449 40.769,157.603 40.610,157.637 40.375 C 157.682 40.054,157.791 40.000,158.395 40.000 C 159.152 40.000,159.500 39.779,159.500 39.300 C 159.500 39.025,159.698 39.000,161.833 39.000 L 164.167 39.000 164.167 39.500 M281.863 40.375 C 281.913 40.722,282.013 40.754,283.198 40.798 C 284.453 40.846,284.480 40.856,284.531 41.298 C 284.572 41.651,284.684 41.762,285.042 41.803 C 285.402 41.844,285.500 41.942,285.500 42.261 C 285.500 42.583,285.586 42.667,285.917 42.667 C 286.280 42.667,286.333 42.740,286.333 43.236 C 286.333 44.022,286.480 44.333,286.851 44.333 C 287.101 44.333,287.167 44.455,287.167 44.917 L 287.167 45.500 281.333 45.500 L 275.500 45.500 275.500 45.018 C 275.500 44.643,275.592 44.513,275.917 44.432 C 276.290 44.338,276.333 44.243,276.333 43.508 C 276.333 42.738,276.361 42.686,276.792 42.636 C 277.120 42.598,277.265 42.477,277.303 42.208 C 277.342 41.937,277.468 41.833,277.762 41.833 C 278.101 41.833,278.167 41.752,278.167 41.333 L 278.167 40.833 279.500 40.833 C 280.811 40.833,280.833 40.826,280.833 40.417 C 280.833 39.832,281.781 39.794,281.863 40.375 M200.000 53.905 C 200.000 56.099,199.993 56.145,199.625 56.197 C 199.359 56.235,199.235 56.380,199.198 56.698 C 199.162 57.012,199.037 57.162,198.782 57.198 C 198.563 57.229,198.397 57.387,198.368 57.591 C 198.339 57.791,198.115 58.009,197.826 58.118 C 197.555 58.221,197.333 58.418,197.333 58.557 C 197.333 58.696,197.165 58.834,196.958 58.863 C 196.690 58.902,196.568 59.047,196.531 59.375 C 196.480 59.812,196.436 59.833,195.572 59.833 C 194.717 59.833,194.667 59.857,194.667 60.250 L 194.667 60.667 192.435 60.667 L 190.203 60.667 190.098 60.250 C 190.004 59.875,189.910 59.833,189.163 59.833 C 188.352 59.833,188.333 59.822,188.333 59.333 C 188.333 58.889,188.278 58.833,187.833 58.833 L 187.333 58.833 187.333 57.000 C 187.333 55.346,187.363 55.167,187.633 55.167 C 188.099 55.167,188.333 54.824,188.333 54.142 L 188.333 53.517 189.208 53.467 C 190.024 53.420,190.087 53.386,190.136 52.958 L 190.189 52.500 191.928 52.500 L 193.667 52.500 193.667 52.083 L 193.667 51.667 196.833 51.667 L 200.000 51.667 200.000 53.905 M320.500 53.405 C 320.500 54.217,320.461 54.316,320.125 54.363 C 319.798 54.410,319.744 54.529,319.700 55.292 C 319.659 55.994,319.592 56.167,319.358 56.167 C 318.982 56.167,318.667 56.486,318.667 56.867 C 318.667 57.076,318.540 57.167,318.250 57.167 C 317.920 57.167,317.833 57.251,317.833 57.572 C 317.833 57.891,317.735 57.989,317.375 58.031 C 317.047 58.068,316.902 58.190,316.863 58.458 C 316.811 58.829,316.781 58.833,314.173 58.833 L 311.536 58.833 311.432 58.417 C 311.355 58.112,311.216 58.000,310.913 58.000 C 310.584 58.000,310.500 57.916,310.500 57.583 C 310.500 57.250,310.417 57.167,310.083 57.167 C 309.685 57.167,309.667 57.122,309.667 56.167 C 309.667 55.211,309.685 55.167,310.083 55.167 C 310.417 55.167,310.500 55.083,310.500 54.750 C 310.500 54.418,310.584 54.333,310.913 54.333 C 311.216 54.333,311.355 54.221,311.432 53.917 C 311.529 53.527,311.605 53.500,312.588 53.500 C 313.903 53.500,314.167 53.400,314.167 52.899 L 314.167 52.500 317.333 52.500 L 320.500 52.500 320.500 53.405 " stroke="none" fill="#343434" fill-rule="evenodd"></path><path id="path2" d="" stroke="none" fill="#34343c" fill-rule="evenodd"></path><path id="path3" d="M39.333 0.250 C 39.333 0.389,39.481 0.500,39.667 0.500 C 39.852 0.500,40.000 0.389,40.000 0.250 C 40.000 0.111,39.852 0.000,39.667 0.000 C 39.481 0.000,39.333 0.111,39.333 0.250 M50.167 0.250 C 50.167 0.388,50.279 0.500,50.417 0.500 C 50.554 0.500,50.667 0.388,50.667 0.250 C 50.667 0.112,50.554 0.000,50.417 0.000 C 50.279 0.000,50.167 0.112,50.167 0.250 M36.740 0.762 C 36.562 0.907,36.529 0.967,36.667 0.897 C 36.882 0.787,36.885 0.809,36.688 1.051 C 36.550 1.221,36.219 1.334,35.855 1.336 C 35.112 1.339,34.756 1.548,34.731 1.994 C 34.707 2.422,34.801 2.421,35.176 1.989 C 35.340 1.800,35.499 1.655,35.529 1.666 C 35.559 1.678,35.696 1.652,35.833 1.608 C 36.123 1.514,36.991 1.330,37.284 1.299 C 37.395 1.287,37.452 1.224,37.411 1.158 C 37.303 0.983,37.687 0.710,38.167 0.622 C 38.419 0.576,38.285 0.536,37.824 0.523 C 37.351 0.509,36.941 0.599,36.740 0.762 M51.357 0.580 C 51.426 0.649,51.994 0.783,52.375 0.821 C 52.444 0.828,52.481 0.921,52.458 1.029 C 52.435 1.140,52.742 1.291,53.167 1.377 C 53.579 1.461,54.108 1.710,54.342 1.931 C 54.875 2.434,55.127 2.443,55.102 1.958 C 55.091 1.727,54.976 1.583,54.803 1.581 C 54.649 1.580,54.468 1.524,54.401 1.456 C 54.333 1.389,54.103 1.333,53.889 1.333 C 53.675 1.333,53.500 1.264,53.500 1.179 C 53.500 0.778,52.937 0.500,52.127 0.500 C 51.660 0.500,51.314 0.536,51.357 0.580 M33.154 2.392 C 33.147 2.405,33.115 2.555,33.083 2.724 C 33.013 3.092,32.935 3.181,32.640 3.226 C 32.268 3.282,32.000 3.506,32.000 3.760 C 32.000 4.100,32.267 4.057,32.639 3.658 C 32.814 3.470,33.125 3.303,33.330 3.288 C 33.552 3.271,33.763 3.101,33.851 2.870 C 33.933 2.655,34.075 2.526,34.166 2.583 C 34.258 2.640,34.333 2.614,34.333 2.527 C 34.333 2.404,33.213 2.276,33.154 2.392 M57.167 3.427 C 57.167 3.569,57.237 3.643,57.322 3.590 C 57.407 3.538,57.595 3.662,57.739 3.868 L 58.000 4.241 58.000 3.805 C 58.000 3.410,57.740 3.167,57.320 3.167 C 57.236 3.167,57.167 3.284,57.167 3.427 M31.000 4.583 C 31.000 4.917,30.917 5.000,30.583 5.000 C 30.250 5.000,30.167 5.083,30.167 5.417 C 30.167 5.742,30.081 5.833,29.778 5.833 C 29.564 5.833,29.334 5.889,29.266 5.956 C 29.198 6.024,29.017 6.080,28.863 6.081 C 28.690 6.083,28.576 6.227,28.564 6.458 C 28.539 6.956,28.924 6.938,29.259 6.427 C 29.405 6.203,29.688 5.997,29.888 5.968 C 30.116 5.936,30.270 5.778,30.303 5.542 C 30.337 5.307,30.472 5.167,30.666 5.167 C 30.843 5.167,31.082 4.953,31.225 4.667 C 31.438 4.240,31.440 4.167,31.237 4.167 C 31.095 4.167,31.000 4.334,31.000 4.583 M59.292 5.172 C 59.498 5.255,59.667 5.439,59.667 5.582 C 59.667 5.725,59.848 5.910,60.069 5.995 C 60.291 6.079,60.507 6.283,60.550 6.449 C 60.605 6.662,60.634 6.626,60.647 6.327 C 60.662 6.009,60.579 5.898,60.314 5.878 C 59.876 5.845,59.822 5.791,59.789 5.352 C 59.769 5.090,59.654 5.003,59.340 5.011 C 58.921 5.021,58.920 5.023,59.292 5.172 M27.523 8.125 C 27.541 8.502,27.558 8.519,27.616 8.219 C 27.657 8.008,27.841 7.824,28.052 7.783 C 28.352 7.725,28.336 7.708,27.958 7.689 C 27.559 7.670,27.503 7.726,27.523 8.125 M61.865 7.780 C 62.019 7.820,62.221 8.055,62.313 8.302 L 62.480 8.750 62.454 8.208 C 62.433 7.741,62.371 7.669,62.006 7.686 C 61.743 7.698,61.689 7.733,61.865 7.780 M26.513 9.208 C 26.504 9.405,26.364 9.500,26.083 9.500 C 25.784 9.500,25.667 9.590,25.667 9.820 C 25.667 9.996,25.624 10.277,25.571 10.445 C 25.489 10.704,25.507 10.700,25.691 10.417 C 25.811 10.233,25.913 10.008,25.920 9.917 C 25.926 9.825,26.015 9.766,26.117 9.786 C 26.376 9.837,26.716 9.388,26.612 9.131 C 26.558 8.996,26.521 9.025,26.513 9.208 M63.410 9.657 C 63.472 9.757,63.587 9.799,63.666 9.750 C 63.745 9.702,63.851 9.794,63.903 9.956 C 63.954 10.118,64.171 10.438,64.384 10.667 C 64.597 10.897,64.855 11.235,64.958 11.417 C 65.124 11.713,65.144 11.688,65.130 11.193 C 65.119 10.782,65.015 10.590,64.733 10.462 C 64.523 10.366,64.328 10.129,64.300 9.935 C 64.265 9.687,64.109 9.567,63.774 9.529 C 63.462 9.493,63.337 9.537,63.410 9.657 M25.040 10.527 C 24.789 10.777,24.768 11.167,25.005 11.167 C 25.207 11.167,25.391 10.756,25.305 10.499 C 25.266 10.380,25.177 10.389,25.040 10.527 M23.911 12.417 C 23.868 12.554,23.796 12.784,23.751 12.927 C 23.706 13.071,23.593 13.141,23.501 13.084 C 23.408 13.027,23.258 13.177,23.166 13.417 C 22.955 13.975,22.955 14.214,23.167 14.083 C 23.258 14.027,23.333 13.835,23.333 13.657 C 23.333 13.477,23.447 13.333,23.589 13.333 C 23.729 13.333,23.890 13.202,23.947 13.042 C 24.004 12.881,24.163 12.619,24.301 12.458 C 24.526 12.197,24.523 12.167,24.271 12.167 C 24.116 12.167,23.954 12.279,23.911 12.417 M65.167 12.361 C 65.167 12.438,65.273 12.500,65.403 12.500 C 65.572 12.500,65.669 12.800,65.740 13.542 C 65.870 14.901,65.704 15.645,65.322 15.410 C 65.236 15.357,65.167 15.392,65.167 15.488 C 65.167 15.584,65.350 15.648,65.573 15.629 C 66.186 15.579,66.155 12.295,65.542 12.250 C 65.335 12.235,65.167 12.285,65.167 12.361 M20.792 16.717 C 20.447 16.853,20.339 17.003,20.356 17.324 C 20.377 17.716,20.384 17.720,20.451 17.375 C 20.494 17.150,20.644 17.000,20.827 17.000 C 20.994 17.000,21.174 16.887,21.227 16.750 C 21.280 16.612,21.306 16.508,21.286 16.518 C 21.266 16.527,21.044 16.617,20.792 16.717 M64.625 17.052 C 64.063 17.627,64.062 17.640,64.597 17.538 C 65.039 17.454,65.237 17.185,65.139 16.801 C 65.102 16.658,64.927 16.743,64.625 17.052 M38.294 17.451 C 38.501 17.491,38.801 17.490,38.960 17.448 C 39.120 17.406,38.950 17.374,38.583 17.375 C 38.217 17.377,38.086 17.411,38.294 17.451 M42.135 17.458 C 43.539 17.486,45.789 17.486,47.135 17.458 C 48.482 17.430,47.333 17.407,44.583 17.407 C 41.833 17.407,40.732 17.430,42.135 17.458 M50.121 17.454 C 50.417 17.490,50.942 17.491,51.288 17.455 C 51.634 17.419,51.392 17.389,50.750 17.388 C 50.108 17.387,49.825 17.417,50.121 17.454 M19.542 17.749 C 19.260 18.069,19.279 18.333,19.583 18.333 C 19.721 18.333,19.815 18.240,19.792 18.125 C 19.769 18.010,19.844 17.935,19.958 17.958 C 20.073 17.981,20.167 17.887,20.167 17.750 C 20.167 17.437,19.817 17.436,19.542 17.749 M34.480 17.660 C 34.469 17.710,34.471 17.812,34.484 17.887 C 34.498 17.963,34.440 17.983,34.356 17.931 C 34.273 17.879,34.112 17.949,33.998 18.085 C 33.731 18.408,34.647 18.445,34.991 18.125 C 35.173 17.956,35.193 17.964,35.095 18.167 C 35.029 18.304,35.093 18.271,35.238 18.093 C 35.382 17.915,35.500 17.708,35.500 17.632 C 35.500 17.484,34.513 17.512,34.480 17.660 M54.556 17.741 C 54.556 17.873,54.637 17.967,54.736 17.949 C 54.835 17.931,54.902 17.998,54.884 18.097 C 54.864 18.208,55.215 18.280,55.801 18.284 C 56.323 18.287,56.506 18.258,56.208 18.218 C 55.910 18.178,55.667 18.071,55.667 17.980 C 55.667 17.888,55.579 17.868,55.472 17.934 C 55.341 18.015,55.312 17.964,55.383 17.777 C 55.467 17.559,55.390 17.500,55.023 17.500 C 54.727 17.500,54.556 17.588,54.556 17.741 M63.667 18.167 C 63.444 18.310,63.444 18.328,63.667 18.328 C 63.804 18.328,64.029 18.256,64.167 18.167 C 64.389 18.023,64.389 18.005,64.167 18.005 C 64.029 18.005,63.804 18.078,63.667 18.167 M30.758 18.643 C 30.704 18.813,30.492 19.034,30.288 19.135 C 29.939 19.306,29.947 19.316,30.425 19.292 C 30.856 19.271,30.940 19.196,30.970 18.800 C 31.010 18.267,30.902 18.186,30.758 18.643 M59.113 18.443 C 59.052 18.503,59.096 18.668,59.210 18.808 C 59.381 19.020,59.373 19.042,59.167 18.936 C 59.029 18.866,59.066 18.929,59.248 19.077 C 59.755 19.487,62.114 19.409,62.347 18.974 C 62.529 18.635,62.426 18.333,62.129 18.333 C 62.028 18.333,61.991 18.380,62.048 18.437 C 62.256 18.645,61.626 19.048,60.975 19.124 C 60.328 19.198,59.503 18.720,59.788 18.434 C 59.843 18.379,59.739 18.333,59.556 18.333 C 59.372 18.333,59.173 18.383,59.113 18.443 M18.654 18.578 C 18.647 18.581,18.617 18.696,18.587 18.833 C 18.557 18.971,18.479 19.215,18.414 19.377 C 18.323 19.604,18.359 19.646,18.572 19.565 C 18.724 19.506,18.813 19.424,18.771 19.382 C 18.659 19.270,19.228 18.708,19.375 18.786 C 19.444 18.823,19.500 18.774,19.500 18.678 C 19.500 18.552,18.890 18.480,18.654 18.578 M17.873 19.527 C 17.623 19.777,17.602 20.167,17.839 20.167 C 18.040 20.167,18.224 19.756,18.139 19.499 C 18.099 19.380,18.011 19.389,17.873 19.527 M28.889 19.458 C 28.988 19.621,28.566 20.011,28.434 19.879 C 28.379 19.823,28.333 19.865,28.333 19.972 C 28.333 20.245,28.595 20.214,28.905 19.905 C 29.206 19.603,29.247 19.333,28.990 19.333 C 28.893 19.333,28.848 19.390,28.889 19.458 M16.722 20.821 C 16.572 21.220,16.580 21.292,16.769 21.220 C 16.896 21.171,17.000 20.995,17.000 20.828 C 17.000 20.661,17.131 20.490,17.292 20.448 C 17.534 20.385,17.526 20.369,17.245 20.353 C 17.015 20.340,16.848 20.489,16.722 20.821 M27.083 20.667 C 27.021 20.864,27.007 21.063,27.053 21.108 C 27.099 21.154,27.187 21.030,27.250 20.833 C 27.313 20.636,27.326 20.437,27.280 20.392 C 27.235 20.346,27.146 20.470,27.083 20.667 M25.636 21.287 C 25.539 21.404,25.520 21.500,25.595 21.500 C 25.669 21.500,25.585 21.608,25.407 21.741 C 25.095 21.972,25.363 22.011,26.182 21.852 C 26.236 21.842,26.365 21.647,26.469 21.419 C 26.681 20.952,26.003 20.845,25.636 21.287 M13.198 23.160 C 13.241 23.633,13.113 23.817,12.710 23.864 C 12.409 23.899,12.231 24.031,12.190 24.250 C 12.132 24.562,12.148 24.566,12.439 24.311 C 12.610 24.162,12.920 23.988,13.127 23.924 C 13.335 23.861,13.467 23.748,13.421 23.674 C 13.331 23.529,13.675 23.176,13.861 23.223 C 13.922 23.238,14.031 23.191,14.102 23.120 C 14.174 23.048,13.998 23.008,13.711 23.029 C 13.424 23.051,13.193 23.110,13.198 23.160 M23.059 23.697 C 22.596 24.419,22.520 24.667,22.760 24.667 C 22.903 24.667,23.000 24.503,23.000 24.264 C 23.000 24.042,23.094 23.828,23.208 23.787 C 23.323 23.746,23.368 23.660,23.308 23.595 C 23.249 23.531,23.137 23.577,23.059 23.697 M74.008 23.992 C 73.875 24.076,73.707 24.108,73.635 24.064 C 73.563 24.019,73.553 24.111,73.614 24.269 C 73.688 24.463,73.661 24.516,73.528 24.434 C 73.421 24.368,73.333 24.395,73.333 24.495 C 73.333 24.595,73.456 24.724,73.606 24.782 C 73.904 24.896,74.436 24.622,74.385 24.379 C 74.358 24.250,74.933 24.165,76.208 24.108 C 76.369 24.101,76.500 24.036,76.500 23.964 C 76.500 23.781,74.303 23.805,74.008 23.992 M77.196 24.197 C 77.225 24.408,77.381 24.605,77.542 24.636 C 77.946 24.713,77.908 24.293,77.487 24.031 C 77.172 23.834,77.146 23.848,77.196 24.197 M10.487 25.099 C 10.294 25.332,10.316 25.358,10.662 25.308 C 10.879 25.276,11.088 25.156,11.126 25.042 C 11.225 24.742,10.748 24.785,10.487 25.099 M72.346 25.292 C 72.354 25.553,72.399 25.642,72.452 25.500 C 72.503 25.363,72.619 25.156,72.709 25.042 C 72.827 24.893,72.797 24.833,72.604 24.833 C 72.417 24.833,72.337 24.975,72.346 25.292 M78.585 25.003 C 78.643 25.096,78.741 25.141,78.803 25.104 C 78.866 25.066,79.013 25.140,79.132 25.267 C 79.250 25.395,79.292 25.500,79.225 25.500 C 79.158 25.500,79.248 25.606,79.425 25.735 C 79.602 25.865,79.798 25.939,79.861 25.899 C 79.924 25.860,80.022 25.961,80.077 26.123 C 80.229 26.563,81.377 27.268,81.302 26.876 C 81.272 26.715,81.083 26.560,80.884 26.531 C 80.658 26.499,80.501 26.341,80.469 26.115 C 80.432 25.857,80.282 25.735,79.958 25.697 C 79.706 25.668,79.500 25.580,79.500 25.501 C 79.500 25.268,78.997 24.833,78.728 24.833 C 78.592 24.833,78.527 24.910,78.585 25.003 M21.727 25.416 C 21.675 25.553,21.570 25.626,21.494 25.580 C 21.320 25.472,21.107 25.805,21.040 26.291 C 20.992 26.643,21.784 26.537,21.852 26.182 C 22.012 25.356,21.934 24.878,21.727 25.416 M9.958 25.619 C 9.607 25.673,9.500 25.781,9.500 26.082 C 9.500 26.317,9.382 26.506,9.208 26.552 C 8.962 26.616,8.959 26.631,9.188 26.647 C 9.468 26.667,9.794 26.376,9.819 26.083 C 9.827 25.992,9.890 25.915,9.958 25.912 C 10.027 25.910,10.233 25.818,10.417 25.709 C 10.759 25.505,10.740 25.501,9.958 25.619 M71.500 26.026 C 71.500 26.374,71.510 26.376,71.833 26.083 C 72.017 25.917,72.167 25.756,72.167 25.724 C 72.167 25.693,72.017 25.667,71.833 25.667 C 71.603 25.667,71.500 25.778,71.500 26.026 M20.500 27.167 C 20.278 27.310,20.278 27.328,20.500 27.328 C 20.637 27.328,20.862 27.256,21.000 27.167 C 21.222 27.023,21.222 27.005,21.000 27.005 C 20.862 27.005,20.637 27.078,20.500 27.167 M7.667 27.917 C 7.667 28.146,7.695 28.333,7.731 28.333 C 7.766 28.333,7.830 28.146,7.874 27.917 C 7.918 27.688,7.889 27.500,7.810 27.500 C 7.731 27.500,7.667 27.688,7.667 27.917 M19.902 28.417 C 19.844 28.646,19.693 28.833,19.565 28.833 C 19.438 28.833,19.333 28.916,19.333 29.018 C 19.333 29.119,19.452 29.157,19.597 29.101 C 19.742 29.046,19.914 29.000,19.978 29.000 C 20.043 29.000,20.113 28.775,20.134 28.500 C 20.180 27.893,20.045 27.844,19.902 28.417 M6.447 28.549 C 6.513 28.655,6.451 28.683,6.289 28.621 C 6.092 28.546,6.039 28.603,6.085 28.839 C 6.118 29.016,6.076 29.203,5.990 29.256 C 5.904 29.310,5.833 29.536,5.833 29.760 C 5.833 30.083,5.747 30.167,5.417 30.167 C 5.083 30.167,5.000 30.250,5.000 30.583 C 5.000 30.917,4.917 31.000,4.583 31.000 C 4.334 31.000,4.167 31.095,4.167 31.237 C 4.167 31.440,4.240 31.438,4.667 31.225 C 4.953 31.082,5.167 30.843,5.167 30.666 C 5.167 30.472,5.307 30.337,5.542 30.303 C 5.783 30.269,5.936 30.116,5.970 29.875 C 5.999 29.668,6.157 29.427,6.321 29.340 C 6.927 29.016,7.207 28.375,6.743 28.375 C 6.505 28.375,6.384 28.446,6.447 28.549 M82.615 28.450 C 82.825 28.491,83.009 28.675,83.050 28.885 C 83.109 29.186,83.125 29.169,83.144 28.792 C 83.164 28.392,83.108 28.336,82.708 28.356 C 82.331 28.375,82.314 28.391,82.615 28.450 M70.695 30.070 C 70.747 30.792,71.500 31.480,71.500 30.805 C 71.500 30.729,71.387 30.667,71.250 30.667 C 71.112 30.667,70.994 30.535,70.987 30.375 C 70.967 29.902,70.866 29.477,70.747 29.360 C 70.686 29.299,70.663 29.619,70.695 30.070 M19.167 30.168 C 19.167 30.260,18.979 30.499,18.750 30.698 C 18.521 30.897,18.334 31.140,18.336 31.238 C 18.337 31.336,18.400 31.319,18.476 31.200 C 18.551 31.081,18.761 30.972,18.940 30.959 C 19.230 30.937,19.535 30.000,19.253 30.000 C 19.205 30.000,19.167 30.075,19.167 30.168 M84.458 30.330 C 84.665 30.417,84.833 30.595,84.833 30.724 C 84.833 30.853,84.946 31.053,85.083 31.167 C 85.256 31.310,85.333 31.316,85.333 31.187 C 85.333 31.084,85.264 31.000,85.178 31.000 C 85.093 31.000,84.999 30.831,84.970 30.625 C 84.933 30.364,84.790 30.238,84.500 30.210 C 84.089 30.171,84.089 30.172,84.458 30.330 M18.305 32.750 C 18.275 33.438,18.306 34.001,18.375 34.000 C 18.444 34.000,18.500 33.438,18.500 32.750 C 18.500 31.135,18.376 31.136,18.305 32.750 M3.320 32.266 C 3.127 32.498,3.149 32.525,3.495 32.474 C 3.713 32.443,3.921 32.323,3.959 32.208 C 4.058 31.908,3.581 31.952,3.320 32.266 M85.833 32.178 C 85.833 32.274,85.900 32.312,85.981 32.262 C 86.152 32.156,86.543 32.568,86.404 32.707 C 86.353 32.758,86.393 32.850,86.492 32.912 C 86.610 32.984,86.661 32.855,86.637 32.546 C 86.602 32.079,85.833 31.728,85.833 32.178 M3.167 33.167 C 3.167 33.589,3.102 33.667,2.750 33.667 C 2.491 33.667,2.333 33.761,2.333 33.917 C 2.333 34.240,2.499 34.228,2.937 33.871 C 3.322 33.558,3.618 32.667,3.337 32.667 C 3.243 32.667,3.167 32.892,3.167 33.167 M87.384 33.986 C 87.457 34.464,87.667 34.626,87.667 34.204 C 87.667 34.011,87.591 33.807,87.499 33.750 C 87.404 33.690,87.354 33.791,87.384 33.986 M71.533 34.692 C 71.581 35.262,71.658 35.395,71.968 35.442 C 72.298 35.493,72.323 35.458,72.167 35.167 C 72.069 34.983,71.914 34.833,71.824 34.833 C 71.734 34.833,71.694 34.646,71.736 34.417 C 71.777 34.188,71.736 34.000,71.643 34.000 C 71.548 34.000,71.500 34.300,71.533 34.692 M18.167 34.463 C 18.167 34.626,18.017 34.868,17.833 35.000 C 17.650 35.132,17.500 35.283,17.500 35.335 C 17.500 35.511,18.159 35.480,18.271 35.299 C 18.460 34.994,18.503 34.167,18.330 34.167 C 18.240 34.167,18.167 34.300,18.167 34.463 M1.500 34.999 C 1.408 35.171,1.333 35.570,1.333 35.885 C 1.333 36.223,1.217 36.553,1.051 36.688 C 0.809 36.885,0.787 36.882,0.897 36.667 C 0.976 36.512,0.935 36.526,0.790 36.703 C 0.661 36.860,0.549 37.310,0.540 37.703 C 0.532 38.095,0.569 38.304,0.622 38.167 C 0.675 38.029,0.894 37.685,1.109 37.401 C 1.324 37.117,1.500 36.653,1.500 36.369 C 1.500 36.085,1.576 35.806,1.669 35.748 C 1.763 35.691,1.804 35.587,1.762 35.519 C 1.719 35.450,1.831 35.289,2.009 35.160 C 2.421 34.863,2.419 34.744,2.000 34.713 C 1.817 34.699,1.592 34.828,1.500 34.999 M87.651 35.042 C 87.729 35.248,87.821 35.490,87.855 35.579 C 87.950 35.829,88.500 35.860,88.500 35.616 C 88.500 35.497,88.406 35.299,88.292 35.176 C 88.123 34.993,88.130 34.974,88.333 35.071 C 88.471 35.137,88.438 35.073,88.260 34.929 C 87.772 34.534,87.478 34.588,87.651 35.042 M72.333 44.583 C 72.333 48.510,72.372 51.683,72.420 51.635 C 72.541 51.515,72.552 37.663,72.431 37.542 C 72.377 37.488,72.333 40.657,72.333 44.583 M89.293 38.458 C 89.395 39.530,89.461 39.617,89.481 38.708 C 89.491 38.227,89.440 37.833,89.367 37.833 C 89.294 37.833,89.260 38.115,89.293 38.458 M17.379 39.333 C 17.379 39.746,17.411 39.915,17.451 39.708 C 17.491 39.502,17.491 39.165,17.451 38.958 C 17.411 38.752,17.379 38.921,17.379 39.333 M0.000 39.667 C 0.000 39.852,0.111 40.000,0.250 40.000 C 0.389 40.000,0.500 39.852,0.500 39.667 C 0.500 39.481,0.389 39.333,0.250 39.333 C 0.111 39.333,0.000 39.481,0.000 39.667 M89.342 39.750 C 89.347 40.024,89.738 40.644,89.911 40.653 C 90.000 40.658,90.090 40.934,90.112 41.267 C 90.174 42.248,90.333 42.137,90.333 41.111 C 90.333 40.592,90.258 40.157,90.167 40.146 C 90.075 40.134,89.922 40.116,89.827 40.104 C 89.732 40.093,89.583 39.971,89.496 39.833 C 89.410 39.696,89.340 39.658,89.342 39.750 M17.405 45.500 C 17.405 47.654,17.429 48.535,17.458 47.458 C 17.487 46.381,17.487 44.619,17.458 43.542 C 17.429 42.465,17.405 43.346,17.405 45.500 M90.167 48.591 C 90.167 48.830,89.984 49.185,89.750 49.402 C 89.521 49.614,89.334 49.892,89.336 50.019 C 89.338 50.207,89.365 50.209,89.478 50.031 C 89.554 49.910,89.758 49.790,89.932 49.765 C 90.227 49.722,90.550 48.167,90.263 48.167 C 90.210 48.167,90.167 48.358,90.167 48.591 M17.379 50.500 C 17.379 50.913,17.411 51.081,17.451 50.875 C 17.491 50.669,17.491 50.331,17.451 50.125 C 17.411 49.919,17.379 50.087,17.379 50.500 M89.363 51.196 C 89.346 51.648,89.223 52.087,89.071 52.238 C 88.833 52.476,88.834 52.500,89.077 52.500 C 89.439 52.500,89.532 52.190,89.457 51.229 L 89.393 50.417 89.363 51.196 M1.375 53.583 C 1.386 53.950,1.459 54.336,1.537 54.441 C 1.615 54.546,1.657 54.733,1.631 54.857 C 1.603 54.988,1.724 55.083,1.917 55.083 C 2.161 55.083,2.250 54.972,2.250 54.667 C 2.250 54.365,2.171 54.263,1.963 54.298 C 1.778 54.329,1.647 54.210,1.595 53.965 C 1.393 53.021,1.357 52.959,1.375 53.583 M88.167 54.167 C 88.167 54.258,88.081 54.315,87.977 54.292 C 87.873 54.269,87.731 54.451,87.661 54.697 C 87.556 55.068,87.587 55.139,87.839 55.120 C 88.007 55.108,88.130 55.019,88.113 54.924 C 88.097 54.828,88.161 54.763,88.256 54.780 C 88.351 54.796,88.444 54.628,88.463 54.405 C 88.481 54.182,88.422 54.000,88.331 54.000 C 88.241 54.000,88.167 54.075,88.167 54.167 M17.611 54.444 C 17.402 54.653,17.500 54.848,17.788 54.799 C 17.948 54.772,18.084 54.861,18.096 55.000 C 18.142 55.572,18.174 55.667,18.323 55.667 C 18.561 55.667,18.474 54.954,18.195 54.625 C 17.931 54.312,17.788 54.268,17.611 54.444 M71.588 54.632 C 71.476 54.923,71.472 56.250,71.583 56.139 C 71.629 56.093,71.679 55.747,71.694 55.370 C 71.709 54.993,71.765 54.689,71.819 54.695 C 72.112 54.728,72.333 54.648,72.333 54.510 C 72.333 54.269,71.687 54.374,71.588 54.632 M2.333 55.722 C 2.333 56.066,2.415 56.167,2.692 56.167 C 3.047 56.167,3.048 56.162,2.736 55.792 C 2.562 55.585,2.401 55.385,2.377 55.347 C 2.353 55.309,2.333 55.478,2.333 55.722 M87.479 55.417 C 87.468 55.462,87.449 55.586,87.438 55.692 C 87.426 55.797,87.267 55.942,87.083 56.014 C 86.805 56.123,86.825 56.141,87.208 56.119 C 87.567 56.099,87.667 56.011,87.667 55.714 C 87.667 55.383,87.538 55.180,87.479 55.417 M18.299 56.125 C 18.269 56.194,18.290 56.700,18.345 57.250 L 18.444 58.250 18.472 57.125 C 18.498 56.100,18.444 55.790,18.299 56.125 M3.219 56.791 C 3.221 57.521,3.641 58.138,3.989 57.923 C 4.273 57.748,4.194 57.481,3.875 57.534 C 3.676 57.568,3.599 57.490,3.632 57.292 C 3.659 57.131,3.608 57.000,3.518 57.000 C 3.429 57.000,3.324 56.794,3.286 56.542 C 3.244 56.265,3.217 56.364,3.219 56.791 M86.208 56.951 C 85.944 57.002,85.833 57.141,85.833 57.422 C 85.833 57.642,85.598 58.089,85.311 58.416 C 85.024 58.744,84.836 59.059,84.894 59.117 C 84.953 59.175,85.000 59.140,85.000 59.039 C 85.000 58.939,85.168 58.833,85.374 58.803 C 85.642 58.765,85.772 58.608,85.834 58.250 C 85.896 57.891,86.014 57.750,86.252 57.750 C 86.498 57.750,86.588 57.632,86.600 57.292 C 86.609 57.040,86.609 56.844,86.600 56.856 C 86.591 56.869,86.415 56.911,86.208 56.951 M70.907 58.262 C 70.729 58.407,70.696 58.471,70.833 58.405 C 71.036 58.307,71.044 58.327,70.875 58.509 C 70.760 58.632,70.668 58.962,70.669 59.242 L 70.672 59.750 70.891 59.333 C 71.012 59.104,71.183 58.930,71.271 58.947 C 71.359 58.963,71.448 58.757,71.468 58.488 C 71.510 57.937,71.375 57.882,70.907 58.262 M4.167 58.500 C 4.167 58.754,4.276 58.832,4.625 58.827 L 5.083 58.822 4.703 58.610 C 4.494 58.494,4.375 58.347,4.439 58.283 C 4.503 58.219,4.468 58.167,4.361 58.167 C 4.254 58.167,4.167 58.317,4.167 58.500 M18.334 58.787 C 18.334 58.858,18.512 59.124,18.730 59.377 C 19.129 59.841,19.304 61.852,18.943 61.823 C 18.745 61.806,18.344 62.368,18.341 62.667 C 18.339 62.889,18.356 62.889,18.496 62.667 C 18.583 62.529,18.732 62.407,18.827 62.396 C 18.922 62.384,19.078 62.366,19.173 62.354 C 19.646 62.297,19.319 59.168,18.813 58.906 C 18.549 58.770,18.333 58.716,18.334 58.787 M5.878 60.083 C 5.911 60.509,5.991 60.589,6.417 60.622 C 6.877 60.658,6.887 60.649,6.538 60.501 C 6.329 60.413,6.087 60.171,5.999 59.962 C 5.851 59.613,5.842 59.623,5.878 60.083 M83.583 60.452 C 83.025 60.586,82.956 60.782,83.495 60.703 C 83.773 60.662,84.000 60.562,84.000 60.481 C 84.000 60.400,83.981 60.342,83.958 60.353 C 83.935 60.363,83.767 60.408,83.583 60.452 M69.830 60.921 C 69.535 61.276,69.758 61.432,70.089 61.102 C 70.238 60.952,70.429 60.873,70.513 60.925 C 70.598 60.977,70.667 60.940,70.667 60.843 C 70.667 60.576,70.070 60.632,69.830 60.921 M69.667 62.000 C 69.667 62.275,69.696 62.500,69.731 62.500 C 69.767 62.500,69.829 62.275,69.869 62.000 C 69.909 61.725,69.880 61.500,69.804 61.500 C 69.729 61.500,69.667 61.725,69.667 62.000 M81.221 62.542 C 81.148 62.656,81.087 62.818,81.086 62.901 C 81.084 62.984,80.942 63.072,80.770 63.098 C 80.597 63.123,80.372 63.235,80.270 63.346 C 80.127 63.501,80.155 63.524,80.389 63.441 C 80.557 63.382,80.838 63.333,81.014 63.333 C 81.241 63.333,81.333 63.216,81.333 62.929 C 81.333 62.684,81.448 62.494,81.625 62.448 C 81.888 62.380,81.889 62.370,81.635 62.353 C 81.480 62.342,81.293 62.427,81.221 62.542 M68.833 62.859 C 68.833 63.208,68.843 63.209,69.167 62.917 C 69.350 62.751,69.500 62.589,69.500 62.558 C 69.500 62.526,69.350 62.500,69.167 62.500 C 68.936 62.500,68.833 62.611,68.833 62.859 M9.556 63.679 C 9.681 64.011,9.848 64.160,10.078 64.147 C 10.359 64.131,10.367 64.115,10.125 64.052 C 9.965 64.010,9.833 63.839,9.833 63.672 C 9.833 63.505,9.729 63.329,9.603 63.280 C 9.414 63.208,9.405 63.280,9.556 63.679 M68.415 63.503 C 68.357 63.596,68.240 63.629,68.155 63.576 C 68.070 63.523,68.000 63.686,68.000 63.938 L 68.000 64.396 68.500 63.917 C 68.775 63.653,69.000 63.414,69.000 63.385 C 69.000 63.254,68.508 63.352,68.415 63.503 M79.778 63.778 C 79.592 63.964,79.653 64.167,79.896 64.167 C 80.023 64.167,80.219 64.054,80.333 63.917 C 80.551 63.655,80.031 63.525,79.778 63.778 M17.833 64.000 C 17.611 64.144,17.611 64.162,17.833 64.162 C 17.971 64.162,18.196 64.089,18.333 64.000 C 18.556 63.856,18.556 63.838,18.333 63.838 C 18.196 63.838,17.971 63.911,17.833 64.000 M79.042 64.118 C 78.809 64.162,78.667 64.311,78.667 64.508 C 78.667 64.718,78.510 64.864,78.208 64.936 C 77.648 65.070,77.307 65.322,77.426 65.515 C 77.475 65.594,77.168 65.745,76.744 65.852 C 76.198 65.990,75.932 66.157,75.829 66.427 C 75.750 66.636,75.512 66.846,75.301 66.893 C 74.981 66.963,75.776 66.903,76.442 66.806 C 76.548 66.790,76.592 66.665,76.539 66.528 C 76.471 66.351,76.508 66.319,76.667 66.417 C 76.828 66.517,76.862 66.481,76.787 66.287 C 76.708 66.081,76.807 66.008,77.217 65.968 C 77.614 65.930,77.763 65.826,77.801 65.561 C 77.848 65.226,78.398 64.973,79.167 64.930 C 79.320 64.922,79.423 64.740,79.433 64.458 C 79.443 64.206,79.443 64.010,79.433 64.023 C 79.424 64.035,79.248 64.078,79.042 64.118 M10.564 64.542 C 10.576 64.773,10.690 64.917,10.863 64.919 C 11.017 64.920,11.198 64.976,11.266 65.044 C 11.334 65.111,11.559 65.167,11.767 65.167 C 11.995 65.167,12.185 65.295,12.247 65.491 C 12.315 65.706,12.442 65.781,12.619 65.713 C 12.787 65.649,12.846 65.677,12.778 65.789 C 12.702 65.911,13.114 65.959,14.084 65.942 C 14.864 65.928,15.488 65.879,15.472 65.833 C 15.457 65.787,15.533 65.583,15.642 65.379 C 15.810 65.065,15.802 65.023,15.587 65.105 C 15.448 65.158,15.333 65.300,15.333 65.420 C 15.333 65.655,14.301 65.878,13.750 65.762 C 13.567 65.724,13.360 65.686,13.292 65.679 C 13.223 65.672,13.185 65.578,13.208 65.470 C 13.232 65.356,12.874 65.186,12.359 65.068 C 11.814 64.942,11.374 64.727,11.225 64.514 C 10.903 64.055,10.541 64.070,10.564 64.542 M17.289 64.266 C 17.234 64.321,17.225 64.459,17.269 64.572 C 17.312 64.685,17.251 64.785,17.132 64.793 C 16.393 64.844,15.934 65.147,16.630 65.124 C 17.230 65.105,17.359 65.039,17.442 64.709 C 17.542 64.308,17.467 64.089,17.289 64.266 M67.023 65.625 C 67.041 66.002,67.058 66.019,67.116 65.719 C 67.157 65.508,67.341 65.324,67.552 65.283 C 67.852 65.225,67.836 65.208,67.458 65.189 C 67.059 65.170,67.003 65.226,67.023 65.625 M64.612 67.279 C 64.144 67.847,63.773 68.149,63.641 68.068 C 63.564 68.020,63.500 68.186,63.500 68.438 L 63.500 68.896 63.958 68.479 C 64.210 68.250,64.633 67.971,64.897 67.859 C 65.160 67.746,65.330 67.608,65.274 67.552 C 65.218 67.496,65.297 67.358,65.451 67.246 C 65.696 67.067,65.673 67.042,65.269 67.042 C 65.015 67.042,64.720 67.148,64.612 67.279 M74.042 67.777 C 73.927 67.823,73.833 67.996,73.833 68.162 C 73.833 68.437,73.476 68.585,72.542 68.697 C 72.427 68.711,72.333 68.857,72.333 69.022 C 72.333 69.264,71.700 69.802,71.542 69.695 C 71.519 69.679,71.493 69.723,71.484 69.792 C 71.436 70.155,71.116 70.500,70.827 70.500 C 70.606 70.500,70.500 70.613,70.500 70.849 C 70.500 71.058,70.366 71.233,70.167 71.285 C 69.983 71.333,69.833 71.430,69.833 71.500 C 69.833 71.570,69.594 71.861,69.301 72.147 C 68.611 72.823,68.474 73.593,69.158 72.958 C 69.340 72.789,69.360 72.797,69.262 73.000 C 69.196 73.137,69.257 73.100,69.398 72.917 C 69.717 72.500,69.833 72.384,70.250 72.064 C 70.433 71.924,70.497 71.852,70.391 71.905 C 70.247 71.976,70.244 71.903,70.380 71.615 C 70.487 71.389,70.703 71.234,70.906 71.240 C 71.146 71.247,71.235 71.161,71.200 70.953 C 71.165 70.750,71.307 70.600,71.646 70.482 C 71.958 70.374,72.204 70.134,72.307 69.837 C 72.413 69.532,72.579 69.375,72.777 69.391 C 72.981 69.408,73.083 69.305,73.083 69.083 C 73.083 68.850,73.211 68.735,73.508 68.701 C 73.802 68.666,73.990 68.500,74.119 68.159 C 74.221 67.888,74.292 67.673,74.277 67.680 C 74.262 67.687,74.156 67.731,74.042 67.777 M62.513 69.292 C 62.521 69.553,62.566 69.642,62.619 69.500 C 62.670 69.362,62.786 69.156,62.876 69.042 C 62.994 68.893,62.963 68.833,62.770 68.833 C 62.583 68.833,62.504 68.975,62.513 69.292 M27.433 70.623 C 27.365 70.690,27.184 70.747,27.030 70.748 C 26.876 70.749,26.748 70.862,26.746 71.000 C 26.743 71.137,26.692 71.328,26.632 71.424 C 26.562 71.535,26.726 71.573,27.095 71.530 C 27.528 71.480,27.667 71.385,27.667 71.139 C 27.667 70.960,27.742 70.860,27.833 70.917 C 27.925 70.973,28.000 70.903,28.000 70.760 C 28.000 70.491,27.649 70.407,27.433 70.623 M28.167 70.670 C 28.167 70.766,28.526 70.827,29.000 70.810 C 29.458 70.794,29.833 70.717,29.833 70.640 C 29.833 70.563,29.458 70.500,29.000 70.500 C 28.542 70.500,28.167 70.576,28.167 70.670 M30.169 70.640 C 30.174 70.838,30.451 71.195,30.602 71.198 C 30.683 71.199,30.731 71.267,30.708 71.350 C 30.685 71.432,30.742 71.500,30.833 71.500 C 31.024 71.500,31.065 70.673,30.875 70.654 C 30.806 70.647,30.619 70.616,30.458 70.585 C 30.298 70.555,30.168 70.579,30.169 70.640 M58.253 70.830 C 57.947 71.168,57.920 71.555,58.208 71.458 C 58.323 71.420,58.418 71.283,58.420 71.153 C 58.422 71.022,58.553 70.939,58.712 70.966 C 58.870 70.993,59.000 70.941,59.000 70.850 C 59.000 70.760,59.319 70.656,59.708 70.619 C 60.267 70.567,60.214 70.553,59.461 70.552 C 58.778 70.551,58.433 70.631,58.253 70.830 M25.667 71.859 C 25.667 72.208,25.676 72.209,26.000 71.917 C 26.183 71.751,26.333 71.589,26.333 71.558 C 26.333 71.526,26.183 71.500,26.000 71.500 C 25.770 71.500,25.667 71.611,25.667 71.859 M34.583 71.619 C 34.858 71.656,35.169 71.798,35.273 71.933 C 35.377 72.069,35.705 72.249,36.002 72.334 L 36.541 72.489 36.229 72.132 C 36.016 71.889,35.996 71.816,36.167 71.900 C 36.304 71.969,36.271 71.907,36.093 71.762 C 35.882 71.591,35.477 71.509,34.926 71.525 C 34.383 71.541,34.261 71.574,34.583 71.619 M54.122 71.730 C 54.181 71.825,54.094 71.841,53.907 71.770 C 53.735 71.703,53.645 71.700,53.708 71.763 C 53.770 71.826,53.752 72.007,53.667 72.166 C 53.530 72.422,53.574 72.442,54.048 72.339 C 54.342 72.274,54.565 72.134,54.542 72.028 C 54.519 71.921,54.575 71.824,54.667 71.813 C 54.758 71.801,54.902 71.782,54.986 71.771 C 55.489 71.702,55.260 71.521,54.698 71.543 C 54.315 71.558,54.066 71.639,54.122 71.730 M24.833 72.604 C 24.833 72.797,24.893 72.827,25.042 72.709 C 25.156 72.619,25.363 72.503,25.500 72.452 C 25.642 72.399,25.553 72.354,25.292 72.346 C 24.975 72.337,24.833 72.417,24.833 72.604 M38.627 72.451 C 38.834 72.491,39.134 72.490,39.294 72.448 C 39.453 72.406,39.283 72.374,38.917 72.375 C 38.550 72.377,38.420 72.411,38.627 72.451 M42.250 72.492 C 43.717 72.548,46.417 72.548,48.250 72.492 C 51.011 72.408,50.553 72.391,45.583 72.391 C 41.343 72.391,40.366 72.421,42.250 72.492 M68.375 73.542 C 68.398 73.656,68.323 73.731,68.208 73.708 C 68.094 73.685,68.000 73.779,68.000 73.917 C 68.000 74.233,68.286 74.238,68.595 73.929 C 68.905 73.619,68.899 73.333,68.583 73.333 C 68.446 73.333,68.352 73.427,68.375 73.542 M24.072 74.294 C 23.831 74.460,23.754 76.167,23.988 76.167 C 24.137 76.167,24.272 74.946,24.180 74.438 C 24.165 74.358,24.266 74.336,24.405 74.389 C 24.543 74.442,24.700 74.414,24.754 74.326 C 24.870 74.140,24.333 74.115,24.072 74.294 M66.998 74.902 C 66.907 74.993,66.833 75.193,66.833 75.347 C 66.833 75.502,66.649 75.749,66.424 75.896 C 66.173 76.061,65.972 76.395,65.903 76.762 C 65.831 77.149,65.667 77.410,65.437 77.503 C 65.112 77.634,65.120 77.646,65.542 77.656 C 65.940 77.665,66.000 77.603,66.000 77.177 C 66.000 76.907,66.087 76.633,66.192 76.567 C 66.312 76.494,66.340 76.522,66.266 76.641 C 66.094 76.920,66.422 76.878,66.661 76.591 C 66.771 76.457,66.817 76.275,66.762 76.185 C 66.706 76.096,66.737 75.976,66.831 75.918 C 66.924 75.861,67.000 75.631,67.000 75.407 C 67.000 75.115,67.092 75.000,67.323 75.000 C 67.501 75.000,67.691 74.930,67.744 74.843 C 67.871 74.638,67.210 74.690,66.998 74.902 M23.833 76.990 C 23.833 77.076,23.910 77.194,24.003 77.252 C 24.096 77.309,24.129 77.426,24.076 77.512 C 24.023 77.597,24.185 77.667,24.436 77.667 L 24.891 77.667 24.500 77.250 C 24.095 76.819,23.833 76.717,23.833 76.990 M64.916 78.336 C 64.857 78.520,64.748 78.634,64.674 78.588 C 64.599 78.541,64.465 78.597,64.376 78.710 C 64.208 78.926,63.987 79.667,64.091 79.667 C 64.242 79.667,65.002 79.269,65.019 79.182 C 65.195 78.252,65.125 77.677,64.916 78.336 M24.833 78.441 C 24.833 78.620,24.927 78.868,25.042 78.991 C 25.211 79.173,25.203 79.193,25.000 79.095 C 24.863 79.029,24.896 79.093,25.074 79.238 C 25.251 79.382,25.456 79.500,25.529 79.500 C 25.601 79.500,25.707 79.688,25.765 79.917 C 25.829 80.171,25.988 80.333,26.174 80.333 C 26.382 80.333,26.495 80.478,26.531 80.792 C 26.574 81.165,26.676 81.259,27.083 81.298 L 27.583 81.345 27.167 81.127 C 26.938 81.007,26.726 80.741,26.697 80.537 C 26.666 80.322,26.526 80.167,26.363 80.167 C 26.109 80.167,25.686 79.325,25.630 78.708 C 25.620 78.594,25.573 78.538,25.527 78.584 C 25.481 78.630,25.306 78.543,25.139 78.391 C 24.853 78.132,24.833 78.136,24.833 78.441 M63.611 79.944 C 63.425 80.131,63.487 80.333,63.730 80.333 C 63.856 80.333,64.053 80.221,64.167 80.083 C 64.384 79.821,63.864 79.691,63.611 79.944 M62.285 81.500 C 62.237 81.683,62.266 81.833,62.349 81.833 C 62.432 81.833,62.500 81.727,62.500 81.597 C 62.500 81.467,62.594 81.323,62.708 81.277 C 62.841 81.224,62.817 81.188,62.644 81.180 C 62.495 81.173,62.333 81.317,62.285 81.500 M28.378 82.583 C 28.411 83.009,28.491 83.089,28.917 83.122 C 29.377 83.158,29.387 83.149,29.038 83.001 C 28.829 82.913,28.587 82.671,28.499 82.462 C 28.351 82.113,28.342 82.123,28.378 82.583 M61.000 82.982 C 60.749 83.051,60.563 83.239,60.531 83.455 C 60.500 83.670,60.339 83.834,60.128 83.865 C 59.934 83.893,59.757 84.012,59.734 84.129 C 59.711 84.246,59.730 84.265,59.776 84.171 C 59.823 84.077,60.042 84.000,60.264 84.000 C 60.582 84.000,60.667 83.913,60.667 83.583 C 60.667 83.250,60.750 83.167,61.083 83.167 C 61.313 83.167,61.500 83.092,61.500 83.000 C 61.500 82.908,61.481 82.841,61.458 82.850 C 61.435 82.859,61.229 82.918,61.000 82.982 M30.186 84.458 C 30.171 84.747,30.253 84.829,30.542 84.814 C 30.807 84.800,30.835 84.773,30.635 84.720 C 30.480 84.680,30.320 84.520,30.280 84.365 C 30.227 84.165,30.200 84.193,30.186 84.458 M31.070 85.276 C 31.104 85.599,31.218 85.732,31.475 85.751 C 31.904 85.783,32.011 85.875,32.068 86.264 C 32.096 86.456,32.282 86.575,32.597 86.605 C 32.865 86.631,32.989 86.611,32.874 86.562 C 32.759 86.512,32.715 86.390,32.776 86.291 C 32.847 86.176,32.787 86.149,32.611 86.216 C 32.425 86.288,32.333 86.237,32.333 86.064 C 32.333 85.921,32.108 85.719,31.833 85.616 C 31.558 85.512,31.333 85.335,31.333 85.223 C 31.333 85.111,31.263 84.976,31.178 84.923 C 31.092 84.871,31.044 85.029,31.070 85.276 M58.583 85.333 C 58.521 85.530,58.507 85.729,58.553 85.775 C 58.599 85.821,58.687 85.697,58.750 85.500 C 58.813 85.303,58.826 85.104,58.780 85.058 C 58.735 85.012,58.646 85.136,58.583 85.333 M57.375 85.784 C 57.147 85.828,57.000 85.978,57.000 86.166 C 57.000 86.336,56.869 86.508,56.708 86.547 C 56.548 86.586,56.658 86.617,56.953 86.617 C 57.247 86.617,57.450 86.553,57.402 86.477 C 57.355 86.400,57.419 86.377,57.545 86.425 C 57.681 86.477,57.852 86.341,57.967 86.090 C 58.172 85.639,58.161 85.633,57.375 85.784 M56.019 86.794 C 56.009 86.910,55.756 87.154,55.458 87.335 L 54.917 87.665 55.464 87.666 C 56.038 87.667,56.253 87.410,56.117 86.885 C 56.074 86.719,56.030 86.678,56.019 86.794 M34.542 87.615 C 34.702 87.657,34.965 87.657,35.125 87.615 C 35.285 87.573,35.154 87.539,34.833 87.539 C 34.512 87.539,34.381 87.573,34.542 87.615 M37.338 88.875 C 37.334 89.241,37.409 89.333,37.708 89.331 C 37.922 89.329,38.005 89.275,37.902 89.206 C 37.803 89.138,37.636 88.933,37.532 88.750 C 37.356 88.439,37.343 88.448,37.338 88.875 M52.333 88.755 C 52.333 88.896,52.165 89.082,51.958 89.169 C 51.616 89.314,51.627 89.325,52.083 89.289 C 52.567 89.251,52.975 88.500,52.512 88.500 C 52.414 88.500,52.333 88.615,52.333 88.755 M40.167 89.583 C 40.167 89.721,40.242 89.833,40.333 89.833 C 40.425 89.833,40.500 89.721,40.500 89.583 C 40.500 89.446,40.425 89.333,40.333 89.333 C 40.242 89.333,40.167 89.446,40.167 89.583 " stroke="none" fill="#e84438" fill-rule="evenodd"></path><path id="path4" d="" stroke="none" fill="#644438" fill-rule="evenodd"></path></g></svg>