<!--?xml version="1.0" encoding="utf-8"?-->
<!-- Svg Vector Icons : http://www.onlinewebfonts.com/icon -->

<svg version="1.1" xmlns="http://www.w3.org/2000/svg" xmlns:xlink="http://www.w3.org/1999/xlink" x="0px" y="0px" viewBox="0 0 256 256" enable-background="new 0 0 256 256" xml:space="preserve">
<metadata> Svg Vector Icons : http://www.onlinewebfonts.com/icon </metadata>
<g><g><g><path fill="#E1563C" data-title="Layer 0" xs="0" d="M146,10.3c-3.5,0.7-5.9,2.1-9.3,5.3l-3.2,3.1l-2-0.5c-2.9-0.7-9-0.6-12.3,0.2c-1.6,0.4-4.3,1.4-6.2,2.3c-1.8,0.9-3.6,1.6-4,1.6c-0.5,0-1.7-1.1-2.7-2.4c-4-4.9-6.6-6.2-11.9-5.9c-4.4,0.3-9.2,2.5-10.5,4.9c-1,1.8-1.2,6.5-0.6,11.2l0.4,2.6l7,5c10.2,7.3,14.6,12,17.3,18.6c1.4,3.4,2.2,8.4,1.8,11.3c-1,8-4.4,14.1-12.7,22.6c-12.7,13-28.7,22.6-45.7,27.3c-3.2,0.9-5.9,1.7-6,1.8c-0.7,0.7-2,11.3-2.3,18.3c-1,27.3,8.9,50,31.1,71.7c22,21.4,47.4,32.6,81.6,35.9c9.6,0.9,31.7,0.6,36.6-0.5c4.3-1,8-2.9,11.1-5.8c3-2.7,4.4-4.9,6-9.1c1-2.6,1.1-3.3,1-16.1c0-9.2-0.3-15.3-0.8-19.4c-0.4-3.3-1.6-13.2-2.6-22c-2-16.9-3.6-27.2-5.3-34.1c-0.6-2.4-1-4.3-0.9-4.3c0.1,0,2.4,0.5,5,1.2c2.7,0.6,5.6,1.2,6.6,1.2c3.7,0,7.9-3.2,8.9-6.8c1.3-4.6,1.5-7.4,0.9-9.7c-0.8-2.9-3.7-5.8-6.4-6.6l-2-0.6l0.9-1c2.5-2.8,3.2-7.6,1.5-10.9c-1-2-5.2-6.1-7.4-7.3c-2.1-1.1-6.3-1-8.6,0.1c-1,0.5-4.2,3.4-7,6.5l-5.2,5.6l-2.9-3.6c-4.9-6.2-12.1-12.7-18.3-16.7c-2.8-1.8-3.1-1.6,3.2-3.5c3.7-1.2,4.5-1.2,16.2-1.3l12.3-0.1l2.8-1.3c3.3-1.6,6.3-4.3,8-7.5c1.1-2.1,1.3-2.8,1.3-6.9c0-4.1-0.1-4.9-1.3-6.9c-2.4-4.6-6.4-7.6-11.4-8.6c-1.4-0.2-7.9-0.5-14.6-0.5c-9.6,0-12.5-0.1-14.1-0.7c-1.1-0.4-3.7-0.8-5.7-1c-4.1-0.3-4.2-0.4-5.9-4.6l-0.9-2.4l1.8-1.8c7.7-7.5,8.4-17.2,1.7-24.1C156.8,11.1,150.7,9.3,146,10.3z M180.4,59.4c-0.6,1.7-0.9,3.5-0.9,5.7c0,2.2,0.3,4,0.9,5.6l1,2.5h-7c-7.7,0-9.8-0.4-11.9-2.2c-1.9-1.6-2.8-3.4-2.8-5.9c0-2.5,0.7-4.1,2.6-5.8c2-1.9,3.5-2.2,11.6-2.2l7.4,0L180.4,59.4z M130.8,90c0.6,0.6,1.2,1.6,1.2,2.3c0,0.6-1,3.1-2.3,5.5c-2,3.8-6.3,15.4-5.9,15.9c0.1,0.1,1.2-0.1,2.5-0.6c9.7-2.9,21.4,0.3,32.3,9.1c1.9,1.5,3.6,2.8,3.7,2.8c0.1,0,2.8-1.9,5.9-4.3c4.4-3.3,6-4.3,7.1-4.3c2.1,0,3.8,1.7,3.8,3.9c0,1.9-0.6,2.5-6.5,6.9c-2.2,1.6-4.1,3.1-4.3,3.3c-0.2,0.2,0.7,1.7,2.1,3.3c4.3,4.9,6.8,8.7,6.8,10.1c0,2-1.8,3.8-3.9,3.8c-1.9,0-2.2-0.2-6.9-6.4l-2.8-3.6l-0.2,6.1c-0.2,5.7-0.3,6.1-1.3,7c-1.2,1-3.6,1.2-4.7,0.3c-1.7-1.3-1.8-2.5-1.8-11.9l0-9.3l-3.3-2.5c-10.2-7.7-20.4-9.5-28.1-4.9l-2,1.2v4.1c0,14.1,6.4,28.6,17.9,40.6l3.2,3.4h12.8H169l1.1,1.2c1.2,1.1,1.5,3,0.9,4.6c-0.6,1.6-2.2,1.9-9.9,2.1l-7.6,0.2l5,3.3c2.8,1.8,6.8,4.3,8.9,5.5l3.9,2.1l5.4-3.6c5.9-3.9,7.3-4.3,9.2-2.5c1.5,1.4,1.6,4.1,0.1,5.4c-0.6,0.5-3.2,2.4-5.8,4.1l-4.8,3.1v5.5c0,5.2,0,5.5-1.2,6.8c-1.5,1.8-3.8,2-5.5,0.3c-1.1-1.1-1.2-1.4-1.2-6.6v-5.5l-4.9-2.8c-2.7-1.5-7.1-4.3-9.8-6.1l-4.9-3.3l-0.2,7.9c-0.2,7.6-0.3,7.9-1.3,8.7c-1.2,1-3.6,1.2-4.7,0.3c-1.6-1.3-1.8-2.5-1.8-13.1v-10.5l-2.5-2.2c-3.1-2.7-8.7-9.3-11.8-14c-2.1-3.2-5.8-10.1-7-13.1l-0.5-1.3l-2,2.3c-2.4,2.7-5.4,8.5-6.5,12.7c-1.2,4.2-1.2,13.9,0,18c1.3,5.1,3.5,9.8,6.2,13.9l2.7,3.9l5.9,0.2c5.5,0.2,6,0.3,6.8,1.3c1.2,1.5,1.1,3.4-0.2,5c-1.1,1.2-1.3,1.3-5.7,1.4l-4.6,0.2l-0.2,4.5c-0.1,4.1-0.3,4.7-1.3,5.8c-1.5,1.6-4.1,1.6-5.6,0c-1.1-1.1-1.1-1.6-1.2-7.4l-0.2-6.3l-2.5-3.6c-3.3-4.6-6-10.4-7.5-16c-1.1-4-1.2-5.4-1.2-11.9c0-8.7,0.8-12.3,4.1-19.1c2.7-5.5,8-12.3,10.4-13.2c0.2-0.1,0.1-2-0.3-4.3c-0.9-5.6-0.6-17.4,0.7-23c1.9-8.5,6.8-20.1,9.5-22.8C126.8,88.5,129.3,88.5,130.8,90z"/><path fill="#E1563C" data-title="Layer 1" xs="1" d="M43.1,25.8c-1.5,0.5-3,1.5-4.9,3.4c-3.1,3.1-4.6,5.8-4.6,8.6c0,3.7,1.4,5.5,11.9,16l10,10l-0.3,8.5c-0.5,14.1-1.6,20.3-5.4,31.3c-1.2,3.7-2.2,6.7-2.1,6.8c0.5,0.5,12.4-3.8,17.1-6.2c17.3-8.8,33.4-23.6,36.3-33.3c1.2-4,0.7-8.8-1.1-12.8c-1.7-3.6-7.1-9.3-11.7-12.4l-2.6-1.7l-3,1.2c-2,0.8-4.2,1.3-6.8,1.4l-3.8,0.2L61.9,36.7c-9.4-9.5-10.2-10.2-12.6-10.9C46.3,24.9,45.9,24.9,43.1,25.8z"/></g></g></g>
</svg>