<!--?xml version="1.0" encoding="utf-8"?-->
<!-- Svg Vector Icons : http://www.onlinewebfonts.com/icon -->

<svg version="1.1" xmlns="http://www.w3.org/2000/svg" xmlns:xlink="http://www.w3.org/1999/xlink" x="0px" y="0px" viewBox="0 0 256 256" enable-background="new 0 0 256 256" xml:space="preserve">
<metadata> Svg Vector Icons : http://www.onlinewebfonts.com/icon </metadata>
<g><g><g><path fill="#E1563C" data-title="Layer 0" xs="0" d="M124.9,10.4c-4.1,1.3-4.9,2.2-10.2,12.6C89.1,74,11.3,231.5,10.6,234c-1.7,6,0.3,10,5.8,11.4c1.9,0.5,32.7,0.6,112,0.6c101.6-0.1,109.6-0.1,112.3-1c2-0.7,3.2-1.5,4.2-3c2.3-3.3,1.6-6.9-3.2-17C228.3,197.4,136.9,14.4,135.4,13C133,10.4,128.7,9.3,124.9,10.4z M140.2,123.6l-16.3,26l20,0.1l19.9,0.2l-38.3,31.9c-21,17.6-39,32.5-39.8,33.1l-1.5,1.1l1.4-2.3c0.7-1.3,8.2-13.1,16.4-26.2l14.9-24l-19.7-0.2c-11-0.1-19.6-0.3-19.5-0.6c0.2-0.6,78.3-65.6,78.5-65.4C156.4,97.5,149.2,109.3,140.2,123.6z"/></g></g></g>
</svg>